<?xml version="1.0" encoding="UTF-8" standalone="no"?>
<!DOCTYPE svg PUBLIC "-//W3C//DTD SVG 1.1//EN" "http://www.w3.org/Graphics/SVG/1.1/DTD/svg11.dtd">
<!-- Généré par Microsoft Visio, SVG Export router_WS.svg Page 1 -->
<svg xmlns="http://www.w3.org/2000/svg" xmlns:xlink="http://www.w3.org/1999/xlink" xmlns:ev="http://www.w3.org/2001/xml-events"
		xmlns:v="http://schemas.microsoft.com/visio/2003/SVGExtensions/" width="1.50208in" height="2.38498in"
		viewBox="0 0 108.15 171.719" xml:space="preserve" color-interpolation-filters="sRGB" class="st18">
	<v:documentProperties v:langID="1036" v:metric="true" v:viewMarkup="false"/>

	<style type="text/css">
	<![CDATA[
		.st1 {fill:#ff00ff;fill-opacity:0;stroke:#000000;stroke-linecap:round;stroke-linejoin:round;stroke-opacity:0;stroke-width:0.72}
		.st2 {fill:url(#grad0-7)}
		.st3 {stroke:#ffffff;stroke-linecap:round;stroke-linejoin:round;stroke-width:0.36}
		.st4 {fill:url(#grad11-12)}
		.st5 {fill:url(#grad12-19);stroke:#ffffff;stroke-linecap:round;stroke-linejoin:round;stroke-width:0.36}
		.st6 {stroke:#000000;stroke-linecap:round;stroke-linejoin:round;stroke-width:1}
		.st7 {fill:url(#grad12-28);stroke:#000000;stroke-linecap:round;stroke-linejoin:round;stroke-width:0.36}
		.st8 {stroke:#000000;stroke-linecap:round;stroke-linejoin:round;stroke-width:0.6}
		.st9 {fill:#000000;stroke:#000000;stroke-linecap:round;stroke-linejoin:round;stroke-width:0.36}
		.st10 {fill:url(#grad8-44);stroke:#ffffff;stroke-linecap:round;stroke-linejoin:round;stroke-width:0.12}
		.st11 {fill:url(#grad10-49);stroke:none;stroke-linecap:round;stroke-linejoin:round;stroke-width:0.12}
		.st12 {fill:#000000;stroke:none;stroke-linecap:round;stroke-linejoin:round;stroke-width:0.24}
		.st13 {stroke:#000000;stroke-linecap:round;stroke-linejoin:round;stroke-width:0.36}
		.st14 {fill:url(#grad7-68)}
		.st15 {stroke:#000000;stroke-linecap:round;stroke-linejoin:round;stroke-width:0.72;visibility:hidden}
		.st16 {fill:#00ff00;fill-opacity:0.7}
		.st17 {fill:#000000;visibility:hidden}
		.st18 {fill:none;fill-rule:evenodd;font-size:12px;overflow:visible;stroke-linecap:square;stroke-miterlimit:3}
	]]>
	</style>

	<defs id="Patterns_And_Gradients">
		<linearGradient id="grad0-7" x1="0" y1="0" x2="1" y2="0" gradientTransform="rotate(270 0.5 0.5)">
			<stop offset="0" stop-color="#ffffff" stop-opacity="1"/>
			<stop offset="1" stop-color="#e1d8c1" stop-opacity="1"/>
		</linearGradient>
		<pattern id="grad11-12" x="0" y="0" width="1" height="1" patternContentUnits="objectBoundingBox">
			<path d="M 0 1 L 0 0 L 1 0 z" style="fill:url(#grad0-13)"/>
			<path d="M 0 1 L 1 1 L 1 0 z" style="fill:url(#grad0-14)"/>
		</pattern>
		<linearGradient id="grad0-13" x1="0" y1="0" x2="1" y2="0" gradientTransform="rotate(180 0.5 0.5)">
			<stop offset="0" stop-color="#ffffff" stop-opacity="1"/>
			<stop offset="1" stop-color="#c9ba96" stop-opacity="1"/>
		</linearGradient>
		<linearGradient id="grad0-14" x1="0" y1="0" x2="1" y2="0" gradientTransform="rotate(90 0.5 0.5)">
			<stop offset="0" stop-color="#ffffff" stop-opacity="1"/>
			<stop offset="1" stop-color="#c9ba96" stop-opacity="1"/>
		</linearGradient>
		<pattern id="grad12-19" x="0" y="0" width="1" height="1" patternContentUnits="objectBoundingBox">
			<path d="M 0 0 L 0 1 L 1 1 z" style="fill:url(#grad0-20)"/>
			<path d="M 0 0 L 1 0 L 1 1 z" style="fill:url(#grad0-21)"/>
		</pattern>
		<linearGradient id="grad0-20" x1="0" y1="0" x2="1" y2="0" gradientTransform="rotate(90 0.5 0.5)">
			<stop offset="0" stop-color="#ffffff" stop-opacity="1"/>
			<stop offset="1" stop-color="#b6a06d" stop-opacity="1"/>
		</linearGradient>
		<linearGradient id="grad0-21" x1="0" y1="0" x2="1" y2="0" gradientTransform="rotate(360 0.5 0.5)">
			<stop offset="0" stop-color="#ffffff" stop-opacity="1"/>
			<stop offset="1" stop-color="#b6a06d" stop-opacity="1"/>
		</linearGradient>
		<pattern id="grad12-28" x="0" y="0" width="1" height="1" patternContentUnits="objectBoundingBox">
			<path d="M 0 0 L 0 1 L 1 1 z" style="fill:url(#grad0-29)"/>
			<path d="M 0 0 L 1 0 L 1 1 z" style="fill:url(#grad0-30)"/>
		</pattern>
		<linearGradient id="grad0-29" x1="0" y1="0" x2="1" y2="0" gradientTransform="rotate(90 0.5 0.5)">
			<stop offset="0" stop-color="#ffffff" stop-opacity="1"/>
			<stop offset="1" stop-color="#339966" stop-opacity="1"/>
		</linearGradient>
		<linearGradient id="grad0-30" x1="0" y1="0" x2="1" y2="0" gradientTransform="rotate(360 0.5 0.5)">
			<stop offset="0" stop-color="#ffffff" stop-opacity="1"/>
			<stop offset="1" stop-color="#339966" stop-opacity="1"/>
		</linearGradient>
		<linearGradient id="grad0-34" x1="0" y1="0" x2="1" y2="0" gradientTransform="rotate(270 0.5 0.5)">
			<stop offset="0" stop-color="#ffffff" stop-opacity="1"/>
			<stop offset="1" stop-color="#e7e4cd" stop-opacity="1"/>
		</linearGradient>
		<pattern id="grad8-44" x="0" y="0" width="1" height="1" patternContentUnits="objectBoundingBox">
			<path d="M 0 0 L 1 0 L 1 1 z" style="fill:url(#grad0-34)"/>
			<path d="M 0 0 L 0 1 L 1 1 z" style="fill:url(#grad0-45)"/>
		</pattern>
		<linearGradient id="grad0-45" x1="0" y1="0" x2="1" y2="0" gradientTransform="rotate(180 0.5 0.5)">
			<stop offset="0" stop-color="#ffffff" stop-opacity="1"/>
			<stop offset="1" stop-color="#e7e4cd" stop-opacity="1"/>
		</linearGradient>
		<pattern id="grad10-49" x="0" y="0" width="1" height="1" patternContentUnits="objectBoundingBox">
			<path d="M 0.5 0.5 L 0 0 L 0 1 z" style="fill:url(#grad0-50)"/>
			<path d="M 0.5 0.5 L 1 0 L 1 1 z" style="fill:url(#grad0-51)"/>
			<path d="M 0.5 0.5 L 0 0 L 1 0 z" style="fill:url(#grad0-52)"/>
			<path d="M 0.5 0.5 L 0 1 L 1 1 z" style="fill:url(#grad0-53)"/>
		</pattern>
		<linearGradient id="grad0-50" x1="0" y1="0" x2="1" y2="0" gradientTransform="rotate(180 0.5 0.5)">
			<stop offset="0" stop-color="#000000" stop-opacity="0.4"/>
			<stop offset="1" stop-color="#e7e4cd" stop-opacity="0.4"/>
		</linearGradient>
		<linearGradient id="grad0-51" x1="0" y1="0" x2="1" y2="0" gradientTransform="rotate(360 0.5 0.5)">
			<stop offset="0" stop-color="#000000" stop-opacity="0.4"/>
			<stop offset="1" stop-color="#e7e4cd" stop-opacity="0.4"/>
		</linearGradient>
		<linearGradient id="grad0-52" x1="0" y1="0" x2="1" y2="0" gradientTransform="rotate(270 0.5 0.5)">
			<stop offset="0" stop-color="#000000" stop-opacity="0.4"/>
			<stop offset="1" stop-color="#e7e4cd" stop-opacity="0.4"/>
		</linearGradient>
		<linearGradient id="grad0-53" x1="0" y1="0" x2="1" y2="0" gradientTransform="rotate(90 0.5 0.5)">
			<stop offset="0" stop-color="#000000" stop-opacity="0.4"/>
			<stop offset="1" stop-color="#e7e4cd" stop-opacity="0.4"/>
		</linearGradient>
		<radialGradient id="grad7-68" cx="0" cy="0" r="1.4">
			<stop offset="0" stop-color="#ffffff" stop-opacity="1"/>
			<stop offset="1" stop-color="#0000ff" stop-opacity="1"/>
		</radialGradient>
	</defs>
	<g v:mID="0" v:index="1" v:groupContext="foregroundPage">
		<title>Page 1</title>
		<v:pageProperties v:drawingScale="0.0393701" v:pageScale="0.0393701" v:drawingUnits="24" v:shadowOffsetX="8.50394"
				v:shadowOffsetY="-8.50394"/>
		<g id="group1-1" transform="translate(0.5,-22.4)" v:mID="1" v:groupContext="group">
			<v:custProps>
				<v:cp v:nameU="Manufacturer" v:lbl="Fabricant" v:type="0" v:sortKey="Equipment" v:invis="false" v:langID="1036"/>
				<v:cp v:nameU="ProductNumber" v:lbl="Numéro de produit" v:type="0" v:sortKey="Equipment" v:invis="false"
						v:langID="1036"/>
				<v:cp v:nameU="PartNumber" v:lbl="Numéro de référence" v:type="0" v:sortKey="Equipment" v:invis="false"
						v:langID="1036"/>
				<v:cp v:nameU="ProductDescription" v:lbl="Description du produit" v:type="0" v:sortKey="Equipment" v:invis="false"
						v:langID="1036"/>
				<v:cp v:nameU="AssetNumber" v:lbl="Numéro d&#39;inventaire" v:type="0" v:sortKey="Asset" v:invis="false"
						v:langID="1036"/>
				<v:cp v:nameU="SerialNumber" v:lbl="Numéro de série" v:type="0" v:sortKey="Asset" v:invis="false" v:langID="1036"/>
				<v:cp v:nameU="Location" v:lbl="Emplacement" v:type="0" v:sortKey="Asset" v:invis="false" v:langID="1036"/>
				<v:cp v:nameU="Building" v:lbl="Bâtiment" v:type="0" v:sortKey="Asset" v:invis="false" v:langID="1036"/>
				<v:cp v:nameU="Room" v:lbl="Salle" v:type="0" v:sortKey="Asset" v:invis="false" v:langID="1036"/>
				<v:cp v:nameU="Department" v:lbl="Service" v:langID="1036"/>
				<v:cp v:nameU="ShapeClass" v:lbl="ShapeClass" v:type="0" v:invis="true" v:ask="false" v:langID="1036"
						v:val="VT4(Équipement)"/>
				<v:cp v:nameU="ShapeType" v:lbl="ShapeType" v:type="0" v:invis="true" v:ask="false" v:langID="1036"
						v:val="VT4(Serveur)"/>
				<v:cp v:nameU="SubShapeType" v:lbl="SubShapeType" v:type="0" v:invis="true" v:ask="false" v:langID="1036"
						v:val="VT4(Web)"/>
				<v:cp v:nameU="NetworkName" v:lbl="Nom de réseau" v:type="0" v:sortKey="Network" v:invis="false" v:ask="false"
						v:langID="1036"/>
				<v:cp v:nameU="IPAddress" v:lbl="Adresse IP" v:type="0" v:sortKey="Network" v:invis="false" v:ask="false"
						v:langID="1036"/>
				<v:cp v:nameU="SubnetMask" v:lbl="Masque de sous-réseau" v:type="0" v:sortKey="Network" v:invis="false"
						v:ask="false" v:langID="1036"/>
				<v:cp v:nameU="AdminInterface" v:lbl="Interface d&#39;administration" v:type="0" v:sortKey="Network"
						v:invis="false" v:ask="false" v:langID="1036"/>
				<v:cp v:nameU="NumberofPorts" v:lbl="Nombre de ports" v:type="0" v:sortKey="Network" v:invis="false" v:ask="false"
						v:langID="1036"/>
				<v:cp v:nameU="MACAddress" v:lbl="Adresse MAC" v:type="0" v:sortKey="Network" v:invis="false" v:ask="false"
						v:langID="1036"/>
				<v:cp v:nameU="CommunityString" v:lbl="Chaîne de communauté" v:type="0" v:sortKey="Network" v:invis="false"
						v:ask="false" v:langID="1036"/>
				<v:cp v:nameU="NetworkDescription" v:lbl="Description de réseau" v:type="0" v:sortKey="Network" v:invis="false"
						v:ask="false" v:langID="1036"/>
				<v:cp v:nameU="HardDriveSize" v:lbl="Capacité du disque dur" v:type="0" v:sortKey="Workstation" v:invis="false"
						v:ask="false" v:langID="1036"/>
				<v:cp v:nameU="CPU" v:lbl="UC" v:type="0" v:sortKey="Workstation" v:invis="false" v:ask="false" v:langID="1036"/>
				<v:cp v:nameU="Memory" v:lbl="Mémoire" v:type="0" v:sortKey="Workstation" v:invis="false" v:ask="false"
						v:langID="1036"/>
				<v:cp v:nameU="OperatingSystem" v:lbl="Système d&#39;exploitation" v:type="0" v:sortKey="Workstation"
						v:invis="false" v:ask="false" v:langID="1036"/>
			</v:custProps>
			<v:userDefs>
				<v:ud v:nameU="HasText" v:val="VT0(0):5"/>
				<v:ud v:nameU="SolSH" v:val="VT15({BF0433D9-CD73-4EB5-8390-8653BE590246}):41"/>
				<v:ud v:nameU="ShapeClass" v:val="VT0(5):26"/>
				<v:ud v:nameU="ShapeType" v:val="VT0(24):26"/>
				<v:ud v:nameU="SubShapeType" v:val="VT0(74):26"/>
				<v:ud v:nameU="visLegendShape" v:val="VT0(2):26"/>
				<v:ud v:nameU="visVersion" v:prompt="" v:val="VT0(15):26"/>
			</v:userDefs>
			<title>Serveur Web</title>
			<g id="shape2-2" v:mID="2" v:groupContext="shape">
				<title>Feuille.2</title>
				<path d="M95.42 147.33 A13.5187 12.7838 -178.74 0 0 95.06 144.09 A20.9126 20.3317 -180 0 0 94.68 142.51 L107.15 135.8
							 L107.15 44.97 L65.94 22.9 L0 58.82 L0.02 151.09 A69.3775 64.7893 -180 0 0 40.69 171.72 L59.12 161.67
							 A20.9126 20.3317 -180 0 0 90.77 160.7 A20.9126 20.3317 -180 0 0 92.94 157.54 A20.5572 19.4398 -1.36
							 0 0 95.42 147.33 ZM18.29 73.19 A71.599 66.8639 -180 0 0 40.69 81.15 A70.7993 66.1171 0 0 1 18.29 73.19
							 Z" class="st1"/>
			</g>
			<g id="shape3-4" v:mID="3" v:groupContext="shape" transform="translate(0,-90.5719)">
				<title>Feuille.3</title>
				<path d="M40.66 171.72 L107.15 135.54 L65.94 113.48 L0 149.4 A71.599 66.8639 -180 0 0 40.69 171.72 L40.66 171.72 Z"
						class="st2"/>
				<path d="M40.66 171.72 L107.15 135.54 L65.94 113.48 L0 149.4 A71.599 66.8639 -180 0 0 40.69 171.72" class="st3"/>
			</g>
			<g id="shape4-9" v:mID="4" v:groupContext="shape" transform="translate(0.0243469,-7.38964E-013)">
				<title>Feuille.4</title>
				<path d="M40.66 81.15 A70.7993 66.1171 0 0 1 0 58.72 L0 151.09 A69.3775 64.7893 -180 0 0 40.66 171.72 L40.64 81.15
							 L40.66 81.15 Z" class="st4"/>
				<path d="M40.66 81.15 A70.7993 66.1171 0 0 1 0 58.72 L0 151.09 A69.3775 64.7893 -180 0 0 40.66 171.72 L40.64 81.15"
						class="st3"/>
			</g>
			<g id="shape5-16" v:mID="5" v:groupContext="shape" transform="translate(40.6619,-0.102366)">
				<title>Feuille.5</title>
				<path d="M0 81.25 L0 171.72 L66.49 135.9 L66.49 45.07 L0 81.25 Z" class="st5"/>
			</g>
			<g id="shape6-22" v:mID="6" v:groupContext="shape" transform="translate(0,-0.00328048)">
				<title>Feuille.6</title>
				<path d="M107.15 44.97 L65.94 22.9 L0 58.82 L0.02 151.09 A69.3775 64.7893 -180 0 0 40.69 171.72 L107.15 135.8 L107.15
							 44.97" class="st6"/>
			</g>
			<g id="shape7-25" v:mID="7" v:groupContext="shape" transform="translate(-41.4956,-37.4846) rotate(-20)">
				<title>Feuille.7</title>
				<ellipse cx="3.1124" cy="167.481" rx="3.1124" ry="4.23813" class="st7"/>
			</g>
			<g id="shape8-31" v:mID="8" v:groupContext="shape" transform="translate(6.59382,-13.0885)">
				<title>Feuille.8</title>
				<path d="M-0 146.57 A79.423 72.5395 -96.44 0 0 27.47 160.69" class="st8"/>
				<path d="M-0 152.09 A79.423 72.5395 -96.44 0 0 27.47 166.2" class="st8"/>
				<path d="M-0 157.61 A79.423 72.5395 -96.44 0 0 27.47 171.72" class="st8"/>
			</g>
			<g id="group9-38" transform="translate(5.49485,-64.1465)" v:mID="9" v:groupContext="group">
				<title>Feuille.9</title>
				<g id="shape10-39" v:mID="10" v:groupContext="shape" transform="translate(0,-14.8462)">
					<title>Feuille.10</title>
					<path d="M0.98 157.61 A69.296 64.7133 -180 0 0 28.45 171.72 A1.40806 1.31494 -180 0 0 28.45 169.15 A67.4107 62.9526
								 0 0 1 1.53 155.45 a0.912212 0.851885 -180 0 0 -1.52292 0.724203 A1.98813 1.85665 -180 0 0 0.98 157.61
								 Z" class="st9"/>
				</g>
				<g id="shape11-41" v:mID="11" v:groupContext="shape" transform="translate(8.73771,-18.0803)">
					<title>Feuille.11</title>
					<path d="M8.45 171.61 A10.2965 6.26809 -90.9 0 0 0.21 167.51 A6.77457 3.37757 -180 0 0 8.45 171.61 Z"
							class="st10"/>
				</g>
				<g id="shape12-46" v:mID="12" v:groupContext="shape" transform="translate(1.09897,-0.128286)">
					<title>Feuille.12</title>
					<path d="M0 150.42 L0 157.61 A74.5416 69.6119 -180 0 0 27.47 171.72 L27.47 164.53 A76.9812 71.8902 0 0 1 0 150.42
								 Z" class="st11"/>
				</g>
				<g id="shape13-54" v:mID="13" v:groupContext="shape" transform="translate(1.09897,-4.10517)">
					<title>Feuille.13</title>
					<path d="M0 157.61 A67.4686 63.0067 -180 0 0 27.47 171.72 L27.47 169.92 A74.5716 69.6399 0 0 1 0 155.81 L0 157.61
								 Z" class="st12"/>
				</g>
				<g id="shape14-56" v:mID="14" v:groupContext="shape" transform="translate(1.09897,-0.256573)">
					<title>Feuille.14</title>
					<path d="M0 150.42 L0 157.61 A74.5416 69.6119 -180 0 0 27.47 171.72" class="st3"/>
				</g>
				<g id="shape15-59" v:mID="15" v:groupContext="shape" transform="translate(1.09897,1.7053E-013)">
					<title>Feuille.15</title>
					<path d="M27.47 171.72 L27.47 164.53 A76.9812 71.8902 0 0 1 0 150.42" class="st13"/>
				</g>
			</g>
			<g id="group16-63" transform="translate(53.6074,-3.46748)" v:mID="16" v:groupContext="group">
				<v:userDefs>
					<v:ud v:nameU="IsVisable" v:val="VT0(1):5"/>
				</v:userDefs>
				<title>Feuille.16</title>
				<g id="group17-64" transform="translate(0,-0.0107876)" v:mID="17" v:groupContext="group">
					<title>Feuille.17</title>
					<g id="shape18-65" v:mID="18" v:groupContext="shape">
						<title>Feuille.18</title>
						<ellipse cx="20.9126" cy="151.387" rx="20.9126" ry="20.3317" class="st14"/>
						<ellipse cx="20.9126" cy="151.387" rx="20.9126" ry="20.3317" class="st15"/>
					</g>
					<g id="shape19-70" v:mID="19" v:groupContext="shape" transform="translate(1.73948,-0.45615)">
						<title>Feuille.19</title>
						<path d="M16.57 171.72 L18.99 165.49 A11.0252 10.4309 -3.94 0 0 22.96 159.12 A5.07357 4.79749 -180 0 0 19.08
									 155.29 A5.47212 5.17436 -180 0 0 15.17 157.55 L14.2 156.05 A4.15052 4.03522 -180 0 0 16.97 152.91
									 A7.78146 7.35804 0 0 1 13.84 150.6 L17.3 147.84 L18.19 144.16 L15.59 142.52 L17.23 140.54 L14.16
									 138.43 L14.99 136.1 L19.81 137.44 L19.62 141.28 L21.53 141.84 L24.11 140.67 L26.16 142.3 L28.66
									 147.91 L27.89 151 L26.14 152.12 L26.89 154.2 A3.51562 3.32432 -180 0 0 32.17 156.34 A4.0295
									 3.81024 0 0 1 34.47 159.88 L35.36 164.59 A20.5572 19.4398 -1.36 0 0 40.08 151.26 A13.5187 12.7838
									 -178.74 0 0 37.78 143.84 A14.7234 13.9222 -180 0 0 34.2 138.79 A4.01321 3.79483 -180 0 0 31.26
									 141.51 L32.15 144.24 A2.66557 2.52053 0 0 1 28.93 144.08 L28.49 148.12 A32.5542 30.7828 -180
									 0 0 26.31 142.83 L29.01 141.78 L28 140.28 L26.17 139.88 L26.23 138.66 L27.1 133.93 L22.57 132.68
									 L20.32 133.86 L18.81 132.34 L16.18 132.09 L10.49 135.16 L13.12 136.74 L11.2 139.66 A2.79118
									 2.6393 0 0 1 13.64 142.67 a1.05308 0.995779 0 0 1 -1.47209 1.14245 A1.66443 1.57387 0 0 1 9.89
									 142.13 L10.66 138.93 L9.75 135.81 L5.69 136.44 L5.79 138.4 L4.86 139.24 L2.93 139.06 A16.4277
									 15.9714 -180 0 0 -0 143.81 L2.26 144.65 A7.84235 7.41562 0 0 1 3.98 149.94 A7.31284 6.91492
									 -180 0 0 10.96 153.61 A5.22132 4.93721 0 0 1 14.57 158.14 A2.84204 2.68739 -180 0 0 14.03 161.62
									 L16.52 162.81 A3.32412 3.14324 0 0 1 15.17 165.68 A9.01989 8.52909 -180 0 0 16.57 171.72 Z"
								class="st16"/>
					</g>
				</g>
				<g id="shape20-73" v:mID="20" v:groupContext="shape" transform="translate(0.00564032,-1.98952E-013)">
					<title>Feuille.20</title>
					<ellipse cx="20.9133" cy="151.39" rx="20.9133" ry="20.3287" class="st17"/>
					<ellipse cx="20.9133" cy="151.39" rx="20.9133" ry="20.3287" class="st6"/>
				</g>
			</g>
		</g>
	</g>
</svg>
