<?xml version="1.0" encoding="UTF-8" standalone="no"?>
<!DOCTYPE svg PUBLIC "-//W3C//DTD SVG 1.1//EN" "http://www.w3.org/Graphics/SVG/1.1/DTD/svg11.dtd">
<!-- Généré par Microsoft Visio, SVG Export router_RS.svg Page 1 -->
<svg xmlns="http://www.w3.org/2000/svg" xmlns:xlink="http://www.w3.org/1999/xlink" xmlns:ev="http://www.w3.org/2001/xml-events"
		xmlns:v="http://schemas.microsoft.com/visio/2003/SVGExtensions/" width="9.08232in" height="9.71894in"
		viewBox="0 0 653.927 699.764" xml:space="preserve" color-interpolation-filters="sRGB" class="st16">
	<v:documentProperties v:langID="1036" v:metric="true" v:viewMarkup="false"/>

	<style type="text/css">
	<![CDATA[
		.st1 {fill:#ff00ff;fill-opacity:0;stroke:#000000;stroke-linecap:round;stroke-linejoin:round;stroke-opacity:0;stroke-width:0.72}
		.st2 {fill:url(#grad0-7)}
		.st3 {stroke:#ffffff;stroke-linecap:round;stroke-linejoin:round;stroke-width:0.36}
		.st4 {fill:url(#grad11-12)}
		.st5 {stroke:#a78450;stroke-linecap:round;stroke-linejoin:round;stroke-width:0.36}
		.st6 {fill:url(#grad12-19);stroke:#ffffff;stroke-linecap:round;stroke-linejoin:round;stroke-width:0.36}
		.st7 {stroke:#000000;stroke-linecap:round;stroke-linejoin:round;stroke-width:1.5}
		.st8 {fill:url(#grad12-28);stroke:#000000;stroke-linecap:round;stroke-linejoin:round;stroke-width:0.36}
		.st9 {stroke:#000000;stroke-linecap:round;stroke-linejoin:round;stroke-width:0.6}
		.st10 {fill:#000000;stroke:#000000;stroke-linecap:round;stroke-linejoin:round;stroke-width:0.36}
		.st11 {fill:url(#grad8-44);stroke:#ffffff;stroke-linecap:round;stroke-linejoin:round;stroke-width:0.12}
		.st12 {fill:url(#grad10-49);stroke:none;stroke-linecap:round;stroke-linejoin:round;stroke-width:0.12}
		.st13 {fill:#000000;stroke:none;stroke-linecap:round;stroke-linejoin:round;stroke-width:0.24}
		.st14 {stroke:#000000;stroke-linecap:round;stroke-linejoin:round;stroke-width:0.36}
		.st15 {stroke:#000000;stroke-linecap:round;stroke-linejoin:round;stroke-width:1}
		.st16 {fill:none;fill-rule:evenodd;font-size:12px;overflow:visible;stroke-linecap:square;stroke-miterlimit:3}
	]]>
	</style>

	<defs id="Patterns_And_Gradients">
		<linearGradient id="grad0-7" x1="0" y1="0" x2="1" y2="0" gradientTransform="rotate(270 0.5 0.5)">
			<stop offset="0" stop-color="#ffffff" stop-opacity="1"/>
			<stop offset="1" stop-color="#e1d8c1" stop-opacity="1"/>
		</linearGradient>
		<pattern id="grad11-12" x="0" y="0" width="1" height="1" patternContentUnits="objectBoundingBox">
			<path d="M 0 1 L 0 0 L 1 0 z" style="fill:url(#grad0-13)"/>
			<path d="M 0 1 L 1 1 L 1 0 z" style="fill:url(#grad0-14)"/>
		</pattern>
		<linearGradient id="grad0-13" x1="0" y1="0" x2="1" y2="0" gradientTransform="rotate(180 0.5 0.5)">
			<stop offset="0" stop-color="#ffffff" stop-opacity="1"/>
			<stop offset="1" stop-color="#c9ba96" stop-opacity="1"/>
		</linearGradient>
		<linearGradient id="grad0-14" x1="0" y1="0" x2="1" y2="0" gradientTransform="rotate(90 0.5 0.5)">
			<stop offset="0" stop-color="#ffffff" stop-opacity="1"/>
			<stop offset="1" stop-color="#c9ba96" stop-opacity="1"/>
		</linearGradient>
		<pattern id="grad12-19" x="0" y="0" width="1" height="1" patternContentUnits="objectBoundingBox">
			<path d="M 0 0 L 0 1 L 1 1 z" style="fill:url(#grad0-20)"/>
			<path d="M 0 0 L 1 0 L 1 1 z" style="fill:url(#grad0-21)"/>
		</pattern>
		<linearGradient id="grad0-20" x1="0" y1="0" x2="1" y2="0" gradientTransform="rotate(90 0.5 0.5)">
			<stop offset="0" stop-color="#ffffff" stop-opacity="1"/>
			<stop offset="1" stop-color="#b6a06d" stop-opacity="1"/>
		</linearGradient>
		<linearGradient id="grad0-21" x1="0" y1="0" x2="1" y2="0" gradientTransform="rotate(360 0.5 0.5)">
			<stop offset="0" stop-color="#ffffff" stop-opacity="1"/>
			<stop offset="1" stop-color="#b6a06d" stop-opacity="1"/>
		</linearGradient>
		<pattern id="grad12-28" x="0" y="0" width="1" height="1" patternContentUnits="objectBoundingBox">
			<path d="M 0 0 L 0 1 L 1 1 z" style="fill:url(#grad0-29)"/>
			<path d="M 0 0 L 1 0 L 1 1 z" style="fill:url(#grad0-30)"/>
		</pattern>
		<linearGradient id="grad0-29" x1="0" y1="0" x2="1" y2="0" gradientTransform="rotate(90 0.5 0.5)">
			<stop offset="0" stop-color="#ffffff" stop-opacity="1"/>
			<stop offset="1" stop-color="#339966" stop-opacity="1"/>
		</linearGradient>
		<linearGradient id="grad0-30" x1="0" y1="0" x2="1" y2="0" gradientTransform="rotate(360 0.5 0.5)">
			<stop offset="0" stop-color="#ffffff" stop-opacity="1"/>
			<stop offset="1" stop-color="#339966" stop-opacity="1"/>
		</linearGradient>
		<linearGradient id="grad0-34" x1="0" y1="0" x2="1" y2="0" gradientTransform="rotate(270 0.5 0.5)">
			<stop offset="0" stop-color="#ffffff" stop-opacity="1"/>
			<stop offset="1" stop-color="#e7e4cd" stop-opacity="1"/>
		</linearGradient>
		<pattern id="grad8-44" x="0" y="0" width="1" height="1" patternContentUnits="objectBoundingBox">
			<path d="M 0 0 L 1 0 L 1 1 z" style="fill:url(#grad0-34)"/>
			<path d="M 0 0 L 0 1 L 1 1 z" style="fill:url(#grad0-45)"/>
		</pattern>
		<linearGradient id="grad0-45" x1="0" y1="0" x2="1" y2="0" gradientTransform="rotate(180 0.5 0.5)">
			<stop offset="0" stop-color="#ffffff" stop-opacity="1"/>
			<stop offset="1" stop-color="#e7e4cd" stop-opacity="1"/>
		</linearGradient>
		<pattern id="grad10-49" x="0" y="0" width="1" height="1" patternContentUnits="objectBoundingBox">
			<path d="M 0.5 0.5 L 0 0 L 0 1 z" style="fill:url(#grad0-50)"/>
			<path d="M 0.5 0.5 L 1 0 L 1 1 z" style="fill:url(#grad0-51)"/>
			<path d="M 0.5 0.5 L 0 0 L 1 0 z" style="fill:url(#grad0-52)"/>
			<path d="M 0.5 0.5 L 0 1 L 1 1 z" style="fill:url(#grad0-53)"/>
		</pattern>
		<linearGradient id="grad0-50" x1="0" y1="0" x2="1" y2="0" gradientTransform="rotate(180 0.5 0.5)">
			<stop offset="0" stop-color="#000000" stop-opacity="0.4"/>
			<stop offset="1" stop-color="#e7e4cd" stop-opacity="0.4"/>
		</linearGradient>
		<linearGradient id="grad0-51" x1="0" y1="0" x2="1" y2="0" gradientTransform="rotate(360 0.5 0.5)">
			<stop offset="0" stop-color="#000000" stop-opacity="0.4"/>
			<stop offset="1" stop-color="#e7e4cd" stop-opacity="0.4"/>
		</linearGradient>
		<linearGradient id="grad0-52" x1="0" y1="0" x2="1" y2="0" gradientTransform="rotate(270 0.5 0.5)">
			<stop offset="0" stop-color="#000000" stop-opacity="0.4"/>
			<stop offset="1" stop-color="#e7e4cd" stop-opacity="0.4"/>
		</linearGradient>
		<linearGradient id="grad0-53" x1="0" y1="0" x2="1" y2="0" gradientTransform="rotate(90 0.5 0.5)">
			<stop offset="0" stop-color="#000000" stop-opacity="0.4"/>
			<stop offset="1" stop-color="#e7e4cd" stop-opacity="0.4"/>
		</linearGradient>
	</defs>
	<g v:mID="0" v:index="1" v:groupContext="foregroundPage">
		<title>Page 1</title>
		<v:pageProperties v:drawingScale="0.0393701" v:pageScale="0.0393701" v:drawingUnits="24" v:shadowOffsetX="8.50394"
				v:shadowOffsetY="-8.50394"/>
		<g id="group1-1" transform="translate(0.75,-55.4464)" v:mID="1" v:groupContext="group">
			<v:custProps>
				<v:cp v:nameU="Manufacturer" v:lbl="Fabricant" v:type="0" v:sortKey="Equipment" v:invis="false" v:ask="false"
						v:langID="1036"/>
				<v:cp v:nameU="ProductNumber" v:lbl="Numéro de produit" v:type="0" v:sortKey="Equipment" v:invis="false"
						v:ask="false" v:langID="1036"/>
				<v:cp v:nameU="PartNumber" v:lbl="Numéro de référence" v:type="0" v:sortKey="Equipment" v:invis="false"
						v:ask="false" v:langID="1036"/>
				<v:cp v:nameU="ProductDescription" v:lbl="Description du produit" v:type="0" v:sortKey="Equipment" v:invis="false"
						v:ask="false" v:langID="1036"/>
				<v:cp v:nameU="AssetNumber" v:lbl="Numéro d&#39;inventaire" v:type="0" v:sortKey="Asset" v:invis="false"
						v:ask="false" v:langID="1036"/>
				<v:cp v:nameU="SerialNumber" v:lbl="Numéro de série" v:type="0" v:sortKey="Asset" v:invis="false" v:ask="false"
						v:langID="1036"/>
				<v:cp v:nameU="Location" v:lbl="Emplacement" v:type="0" v:sortKey="Asset" v:invis="false" v:ask="false"
						v:langID="1036"/>
				<v:cp v:nameU="Building" v:lbl="Bâtiment" v:type="0" v:sortKey="Asset" v:invis="false" v:ask="false"
						v:langID="1036"/>
				<v:cp v:nameU="Room" v:lbl="Salle" v:type="0" v:sortKey="Asset" v:invis="false" v:ask="false" v:langID="1036"/>
				<v:cp v:nameU="Department" v:lbl="Service" v:type="0" v:invis="false" v:ask="false" v:langID="1036"/>
				<v:cp v:nameU="NetworkName" v:lbl="Nom de réseau" v:type="0" v:sortKey="Network" v:invis="false" v:ask="false"
						v:langID="1036"/>
				<v:cp v:nameU="IPAddress" v:lbl="Adresse IP" v:type="0" v:sortKey="Network" v:invis="false" v:ask="false"
						v:langID="1036"/>
				<v:cp v:nameU="SubnetMask" v:lbl="Masque de sous-réseau" v:type="0" v:sortKey="Network" v:invis="false"
						v:ask="false" v:langID="1036"/>
				<v:cp v:nameU="AdminInterface" v:lbl="Interface d&#39;administration" v:type="0" v:sortKey="Network"
						v:invis="false" v:ask="false" v:langID="1036"/>
				<v:cp v:nameU="NumberofPorts" v:lbl="Nombre de ports" v:type="0" v:sortKey="Network" v:invis="false" v:ask="false"
						v:langID="1036"/>
				<v:cp v:nameU="CommunityString" v:lbl="Chaîne de communauté" v:type="0" v:sortKey="Network" v:invis="false"
						v:ask="false" v:langID="1036"/>
				<v:cp v:nameU="NetworkDescription" v:lbl="Description de réseau" v:type="0" v:sortKey="Network" v:invis="false"
						v:ask="false" v:langID="1036"/>
				<v:cp v:nameU="CPU" v:lbl="UC" v:type="0" v:sortKey="Workstation" v:invis="false" v:ask="false" v:langID="1036"/>
				<v:cp v:nameU="Memory" v:lbl="Mémoire" v:type="0" v:sortKey="Workstation" v:invis="false" v:ask="false"
						v:langID="1036"/>
				<v:cp v:nameU="OperatingSystem" v:lbl="Système d&#39;exploitation" v:type="0" v:sortKey="Workstation"
						v:invis="false" v:ask="false" v:langID="1036"/>
				<v:cp v:nameU="BelongsTo" v:lbl="Propriétaire" v:type="0" v:invis="true" v:ask="false" v:langID="1036"/>
				<v:cp v:nameU="ShapeClass" v:lbl="ShapeClass" v:type="0" v:invis="true" v:ask="false" v:langID="1036"
						v:val="VT4(Équipement)"/>
				<v:cp v:nameU="ShapeType" v:lbl="ShapeType" v:type="0" v:invis="true" v:ask="false" v:langID="1036"
						v:val="VT4(Serveur)"/>
				<v:cp v:nameU="MACAddress" v:lbl="Adresse MAC" v:type="0" v:sortKey="Network" v:invis="false" v:ask="false"
						v:langID="1036"/>
				<v:cp v:nameU="HardDriveSize" v:lbl="Capacité du disque dur" v:type="0" v:sortKey="Workstation" v:invis="false"
						v:ask="false" v:langID="1036"/>
			</v:custProps>
			<v:userDefs>
				<v:ud v:nameU="HasText" v:val="VT0(0):5"/>
				<v:ud v:nameU="ShapeClass" v:val="VT0(5):26"/>
				<v:ud v:nameU="ShapeType" v:val="VT0(24):26"/>
				<v:ud v:nameU="SolSH" v:val="VT15({BF0433D9-CD73-4EB5-8390-8653BE590246}):41"/>
				<v:ud v:nameU="visLegendShape" v:val="VT0(2):26"/>
				<v:ud v:nameU="visVersion" v:prompt="" v:val="VT0(15):26"/>
			</v:userDefs>
			<title>Serveur</title>
			<g id="shape2-2" v:mID="2" v:groupContext="shape">
				<title>Feuille.2</title>
				<path d="M463.37 151.63 L285.15 56.21 L0 211.55 L0.11 610.54 A300.023 280.181 -180 0 0 175.95 699.76 L463.37 544.41
							 L463.37 151.63 ZM79.11 273.69 A309.63 289.153 -180 0 0 175.95 308.09 A306.171 285.923 0 0 1 79.11 273.69
							 Z" class="st1"/>
			</g>
			<g id="shape3-4" v:mID="3" v:groupContext="shape" transform="translate(0,-391.678)">
				<title>Feuille.3</title>
				<path d="M175.84 699.76 L463.37 543.31 L285.15 447.89 L0 603.23 A309.63 289.153 -180 0 0 175.95 699.76 L175.84 699.76
							 Z" class="st2"/>
				<path d="M175.84 699.76 L463.37 543.31 L285.15 447.89 L0 603.23 A309.63 289.153 -180 0 0 175.95 699.76" class="st3"/>
			</g>
			<g id="shape4-9" v:mID="4" v:groupContext="shape" transform="translate(0.105288,-3.29692E-012)">
				<title>Feuille.4</title>
				<path d="M175.85 308.09 A306.171 285.923 0 0 1 -0 211.1 L0 610.54 A300.023 280.181 -180 0 0 175.85 699.76 L175.74
							 308.08 L175.85 308.09 Z" class="st4"/>
				<path d="M175.85 308.09 A306.171 285.923 0 0 1 -0 211.1 L0 610.54 A300.023 280.181 -180 0 0 175.85 699.76 L175.74
							 308.08" class="st5"/>
			</g>
			<g id="shape5-16" v:mID="5" v:groupContext="shape" transform="translate(175.842,-0.442682)">
				<title>Feuille.5</title>
				<path d="M0 308.52 L0 699.76 L287.53 544.86 L287.53 152.07 L0 308.52 Z" class="st6"/>
			</g>
			<g id="shape6-22" v:mID="6" v:groupContext="shape" transform="translate(0,-0.0141865)">
				<title>Feuille.6</title>
				<path d="M463.37 151.63 L285.15 56.21 L0 211.55 L0.11 610.54 A300.023 280.181 -180 0 0 175.95 699.76 L463.37 544.41
							 L463.37 151.63" class="st7"/>
			</g>
			<g id="shape7-25" v:mID="7" v:groupContext="shape" transform="translate(-164.797,-164.686) rotate(-20)">
				<title>Feuille.7</title>
				<ellipse cx="13.4596" cy="681.436" rx="13.4596" ry="18.3278" class="st8"/>
			</g>
			<g id="shape8-31" v:mID="8" v:groupContext="shape" transform="translate(28.515,-56.6012)">
				<title>Feuille.8</title>
				<path d="M0 591.03 A343.464 313.697 -96.44 0 0 118.81 652.05" class="st9"/>
				<path d="M-0 614.88 A343.464 313.697 -96.44 0 0 118.81 675.91" class="st9"/>
				<path d="M0 638.74 A343.464 313.697 -96.44 0 0 118.81 699.76" class="st9"/>
			</g>
			<g id="group9-38" transform="translate(23.7625,-277.402)" v:mID="9" v:groupContext="group">
				<title>Feuille.9</title>
				<g id="shape10-39" v:mID="10" v:groupContext="shape" transform="translate(0,-64.2023)">
					<title>Feuille.10</title>
					<path d="M4.23 638.74 A299.671 279.853 -180 0 0 123.05 699.76 A6.08914 5.68644 -180 0 0 123.05 688.67 A291.517
								 272.238 0 0 1 6.61 629.42 A3.94486 3.68398 -180 0 0 0.03 632.55 A8.59765 8.02906 -180 0 0 4.23 638.74
								 Z" class="st10"/>
				</g>
				<g id="shape11-41" v:mID="11" v:groupContext="shape" transform="translate(37.7862,-78.1881)">
					<title>Feuille.11</title>
					<path d="M36.55 699.31 A44.5271 27.1064 -90.9 0 0 0.9 681.56 A29.2966 14.6063 -180 0 0 36.55 699.31 Z"
							class="st11"/>
				</g>
				<g id="shape12-46" v:mID="12" v:groupContext="shape" transform="translate(4.7525,-0.554775)">
					<title>Feuille.12</title>
					<path d="M0 607.67 L0 638.74 A322.355 301.037 -180 0 0 118.81 699.76 L118.81 668.7 A332.905 310.889 0 0 1 0 607.67
								 Z" class="st12"/>
				</g>
				<g id="shape13-54" v:mID="13" v:groupContext="shape" transform="translate(4.7525,-17.7528)">
					<title>Feuille.13</title>
					<path d="M0 638.74 A291.768 272.472 -180 0 0 118.81 699.76 L118.81 692 A322.485 301.158 0 0 1 0 630.97 L0 638.74
								 Z" class="st13"/>
				</g>
				<g id="shape14-56" v:mID="14" v:groupContext="shape" transform="translate(4.7525,-1.10955)">
					<title>Feuille.14</title>
					<path d="M0 607.67 L0 638.74 A322.355 301.037 -180 0 0 118.81 699.76" class="st3"/>
				</g>
				<g id="shape15-59" v:mID="15" v:groupContext="shape" transform="translate(4.7525,6.82121E-013)">
					<title>Feuille.15</title>
					<path d="M118.81 699.76 L118.81 668.7 A332.905 310.889 0 0 1 0 607.67" class="st14"/>
				</g>
			</g>
		</g>
		<g id="group56-63" transform="translate(190.059,-0.485814)" v:mID="56" v:groupContext="group">
			<v:custProps>
				<v:cp v:nameU="Manufacturer" v:lbl="Fabricant" v:type="0" v:sortKey="Equipment" v:invis="false" v:ask="false"
						v:langID="1036"/>
				<v:cp v:nameU="ProductNumber" v:lbl="Numéro de produit" v:type="0" v:sortKey="Equipment" v:invis="false"
						v:ask="false" v:langID="1036"/>
				<v:cp v:nameU="PartNumber" v:lbl="Numéro de référence" v:type="0" v:sortKey="Equipment" v:invis="false"
						v:ask="false" v:langID="1036"/>
				<v:cp v:nameU="ProductDescription" v:lbl="Description du produit" v:type="0" v:sortKey="Equipment" v:invis="false"
						v:ask="false" v:langID="1036"/>
				<v:cp v:nameU="AssetNumber" v:lbl="Numéro d&#39;inventaire" v:type="0" v:sortKey="Asset" v:invis="false"
						v:ask="false" v:langID="1036"/>
				<v:cp v:nameU="SerialNumber" v:lbl="Numéro de série" v:type="0" v:sortKey="Asset" v:invis="false" v:ask="false"
						v:langID="1036"/>
				<v:cp v:nameU="Location" v:lbl="Emplacement" v:type="0" v:sortKey="Asset" v:invis="false" v:ask="false"
						v:langID="1036"/>
				<v:cp v:nameU="Building" v:lbl="Bâtiment" v:type="0" v:sortKey="Asset" v:invis="false" v:ask="false"
						v:langID="1036"/>
				<v:cp v:nameU="Room" v:lbl="Salle" v:type="0" v:sortKey="Asset" v:invis="false" v:ask="false" v:langID="1036"/>
				<v:cp v:nameU="Department" v:lbl="Service" v:type="0" v:invis="false" v:ask="false" v:langID="1036"/>
				<v:cp v:nameU="NetworkName" v:lbl="Nom de réseau" v:type="0" v:sortKey="Network" v:invis="false" v:ask="false"
						v:langID="1036"/>
				<v:cp v:nameU="IPAddress" v:lbl="Adresse IP" v:type="0" v:sortKey="Network" v:invis="false" v:ask="false"
						v:langID="1036"/>
				<v:cp v:nameU="SubnetMask" v:lbl="Masque de sous-réseau" v:type="0" v:sortKey="Network" v:invis="false"
						v:ask="false" v:langID="1036"/>
				<v:cp v:nameU="AdminInterface" v:lbl="Interface d&#39;administration" v:type="0" v:sortKey="Network"
						v:invis="false" v:ask="false" v:langID="1036"/>
				<v:cp v:nameU="NumberofPorts" v:lbl="Nombre de ports" v:type="0" v:sortKey="Network" v:invis="false" v:ask="false"
						v:langID="1036"/>
				<v:cp v:nameU="CommunityString" v:lbl="Chaîne de communauté" v:type="0" v:sortKey="Network" v:invis="false"
						v:ask="false" v:langID="1036"/>
				<v:cp v:nameU="NetworkDescription" v:lbl="Description de réseau" v:type="0" v:sortKey="Network" v:invis="false"
						v:ask="false" v:langID="1036"/>
				<v:cp v:nameU="CPU" v:lbl="UC" v:type="0" v:sortKey="Workstation" v:invis="false" v:ask="false" v:langID="1036"/>
				<v:cp v:nameU="Memory" v:lbl="Mémoire" v:type="0" v:sortKey="Workstation" v:invis="false" v:ask="false"
						v:langID="1036"/>
				<v:cp v:nameU="OperatingSystem" v:lbl="Système d&#39;exploitation" v:type="0" v:sortKey="Workstation"
						v:invis="false" v:ask="false" v:langID="1036"/>
				<v:cp v:nameU="BelongsTo" v:lbl="Propriétaire" v:type="0" v:invis="true" v:ask="false" v:langID="1036"/>
				<v:cp v:nameU="ShapeClass" v:lbl="ShapeClass" v:type="0" v:invis="true" v:ask="false" v:langID="1036"
						v:val="VT4(Équipement)"/>
				<v:cp v:nameU="ShapeType" v:lbl="ShapeType" v:type="0" v:invis="true" v:ask="false" v:langID="1036"
						v:val="VT4(Serveur)"/>
				<v:cp v:nameU="MACAddress" v:lbl="Adresse MAC" v:type="0" v:sortKey="Network" v:invis="false" v:ask="false"
						v:langID="1036"/>
				<v:cp v:nameU="HardDriveSize" v:lbl="Capacité du disque dur" v:type="0" v:sortKey="Workstation" v:invis="false"
						v:ask="false" v:langID="1036"/>
			</v:custProps>
			<v:userDefs>
				<v:ud v:nameU="HasText" v:val="VT0(0):5"/>
				<v:ud v:nameU="SolSH" v:val="VT15({BF0433D9-CD73-4EB5-8390-8653BE590246}):41"/>
				<v:ud v:nameU="ShapeClass" v:val="VT0(5):26"/>
				<v:ud v:nameU="ShapeType" v:val="VT0(24):26"/>
				<v:ud v:nameU="visLegendShape" v:val="VT0(2):26"/>
				<v:ud v:nameU="visVersion" v:prompt="" v:val="VT0(15):26"/>
			</v:userDefs>
			<title>Serveur.7</title>
			<g id="shape57-64" v:mID="57" v:groupContext="shape">
				<title>Feuille.57</title>
				<path d="M463.37 151.63 L285.15 56.21 L0 211.55 L0.11 610.54 A300.023 280.181 -180 0 0 175.95 699.76 L463.37 544.41
							 L463.37 151.63 ZM79.11 273.69 A309.63 289.153 -180 0 0 175.95 308.09 A306.171 285.923 0 0 1 79.11 273.69
							 Z" class="st1"/>
			</g>
			<g id="shape58-66" v:mID="58" v:groupContext="shape" transform="translate(0,-391.678)">
				<title>Feuille.58</title>
				<path d="M175.84 699.76 L463.37 543.31 L285.15 447.89 L0 603.23 A309.63 289.153 -180 0 0 175.95 699.76 L175.84 699.76
							 Z" class="st2"/>
				<path d="M175.84 699.76 L463.37 543.31 L285.15 447.89 L0 603.23 A309.63 289.153 -180 0 0 175.95 699.76" class="st3"/>
			</g>
			<g id="shape59-70" v:mID="59" v:groupContext="shape" transform="translate(0.105288,-3.18323E-012)">
				<title>Feuille.59</title>
				<path d="M175.85 308.09 A306.171 285.923 0 0 1 0 211.1 L0 610.54 A300.023 280.181 -180 0 0 175.85 699.76 L175.74
							 308.08 L175.85 308.09 Z" class="st4"/>
				<path d="M175.85 308.09 A306.171 285.923 0 0 1 0 211.1 L0 610.54 A300.023 280.181 -180 0 0 175.85 699.76 L175.74
							 308.08" class="st3"/>
			</g>
			<g id="shape60-74" v:mID="60" v:groupContext="shape" transform="translate(175.842,-0.442682)">
				<title>Feuille.60</title>
				<path d="M0 308.52 L0 699.76 L287.53 544.86 L287.53 152.07 L0 308.52 Z" class="st6"/>
			</g>
			<g id="shape61-77" v:mID="61" v:groupContext="shape" transform="translate(0,-0.0141865)">
				<title>Feuille.61</title>
				<path d="M463.37 151.63 L285.15 56.21 L0 211.55 L0.11 610.54 A300.023 280.181 -180 0 0 175.95 699.76 L463.37 544.41
							 L463.37 151.63" class="st15"/>
			</g>
			<g id="shape62-80" v:mID="62" v:groupContext="shape" transform="translate(-164.797,-164.686) rotate(-20)">
				<title>Feuille.62</title>
				<ellipse cx="13.4596" cy="681.436" rx="13.4596" ry="18.3278" class="st8"/>
			</g>
			<g id="shape63-83" v:mID="63" v:groupContext="shape" transform="translate(28.515,-56.6012)">
				<title>Feuille.63</title>
				<path d="M-0 591.03 A343.464 313.697 -96.44 0 0 118.81 652.05" class="st9"/>
				<path d="M-0 614.88 A343.464 313.697 -96.44 0 0 118.81 675.91" class="st9"/>
				<path d="M0 638.74 A343.464 313.697 -96.44 0 0 118.81 699.76" class="st9"/>
			</g>
			<g id="group64-89" transform="translate(23.7625,-277.402)" v:mID="64" v:groupContext="group">
				<title>Feuille.64</title>
				<g id="shape65-90" v:mID="65" v:groupContext="shape" transform="translate(0,-64.2023)">
					<title>Feuille.65</title>
					<path d="M4.23 638.74 A299.671 279.853 -180 0 0 123.05 699.76 A6.08914 5.68644 -180 0 0 123.05 688.67 A291.517
								 272.238 0 0 1 6.61 629.42 A3.94486 3.68398 -180 0 0 0.03 632.55 A8.59765 8.02906 -180 0 0 4.23 638.74
								 Z" class="st10"/>
				</g>
				<g id="shape66-92" v:mID="66" v:groupContext="shape" transform="translate(37.7862,-78.1881)">
					<title>Feuille.66</title>
					<path d="M36.55 699.31 A44.5271 27.1064 -90.9 0 0 0.9 681.56 A29.2966 14.6063 -180 0 0 36.55 699.31 Z"
							class="st11"/>
				</g>
				<g id="shape67-95" v:mID="67" v:groupContext="shape" transform="translate(4.7525,-0.554775)">
					<title>Feuille.67</title>
					<path d="M0 607.67 L0 638.74 A322.355 301.037 -180 0 0 118.81 699.76 L118.81 668.7 A332.905 310.889 0 0 1 -0
								 607.67 Z" class="st12"/>
				</g>
				<g id="shape68-98" v:mID="68" v:groupContext="shape" transform="translate(4.7525,-17.7528)">
					<title>Feuille.68</title>
					<path d="M0 638.74 A291.768 272.472 -180 0 0 118.81 699.76 L118.81 692 A322.485 301.158 0 0 1 -0 630.97 L0 638.74
								 Z" class="st13"/>
				</g>
				<g id="shape69-100" v:mID="69" v:groupContext="shape" transform="translate(4.7525,-1.10955)">
					<title>Feuille.69</title>
					<path d="M0 607.67 L0 638.74 A322.355 301.037 -180 0 0 118.81 699.76" class="st3"/>
				</g>
				<g id="shape70-103" v:mID="70" v:groupContext="shape" transform="translate(4.7525,6.82121E-013)">
					<title>Feuille.70</title>
					<path d="M118.81 699.76 L118.81 668.7 A332.905 310.889 0 0 1 -0 607.67" class="st14"/>
				</g>
			</g>
		</g>
	</g>
</svg>
