<?xml version="1.0" encoding="UTF-8" standalone="no"?>
<!DOCTYPE svg PUBLIC "-//W3C//DTD SVG 1.1//EN" "http://www.w3.org/Graphics/SVG/1.1/DTD/svg11.dtd">
<!-- Généré par Microsoft Visio, SVG Export router_WS_NS.svg Page-1 -->
<svg xmlns="http://www.w3.org/2000/svg" xmlns:xlink="http://www.w3.org/1999/xlink" xmlns:ev="http://www.w3.org/2001/xml-events"
		xmlns:v="http://schemas.microsoft.com/visio/2003/SVGExtensions/" width="11.6929in" height="8.26772in"
		viewBox="0 0 841.89 595.276" xml:space="preserve" color-interpolation-filters="sRGB" class="st20">
	<v:documentProperties v:langID="1036" v:metric="true" v:viewMarkup="false">
		<v:userDefs>
			<v:ud v:nameU="msvNoAutoConnect" v:val="VT0(0):26"/>
		</v:userDefs>
	</v:documentProperties>

	<style type="text/css">
	<![CDATA[
		.st1 {fill:#ff00ff;fill-opacity:0;stroke:#000000;stroke-linecap:round;stroke-linejoin:round;stroke-opacity:0;stroke-width:0.72}
		.st2 {fill:url(#grad0-7)}
		.st3 {stroke:#ffffff;stroke-linecap:round;stroke-linejoin:round;stroke-width:0.36}
		.st4 {fill:url(#grad11-12)}
		.st5 {stroke:#a78450;stroke-linecap:round;stroke-linejoin:round;stroke-width:0.36}
		.st6 {fill:url(#grad12-19);stroke:#ffffff;stroke-linecap:round;stroke-linejoin:round;stroke-width:0.36}
		.st7 {stroke:#000000;stroke-linecap:round;stroke-linejoin:round;stroke-width:1.5}
		.st8 {fill:url(#grad12-28);stroke:#000000;stroke-linecap:round;stroke-linejoin:round;stroke-width:0.36}
		.st9 {stroke:#000000;stroke-linecap:round;stroke-linejoin:round;stroke-width:0.6}
		.st10 {fill:#000000;stroke:#000000;stroke-linecap:round;stroke-linejoin:round;stroke-width:0.36}
		.st11 {fill:url(#grad8-44);stroke:#ffffff;stroke-linecap:round;stroke-linejoin:round;stroke-width:0.12}
		.st12 {fill:url(#grad10-49);stroke:none;stroke-linecap:round;stroke-linejoin:round;stroke-width:0.12}
		.st13 {fill:#000000;stroke:none;stroke-linecap:round;stroke-linejoin:round;stroke-width:0.24}
		.st14 {stroke:#000000;stroke-linecap:round;stroke-linejoin:round;stroke-width:0.36}
		.st15 {stroke:#000000;stroke-linecap:round;stroke-linejoin:round;stroke-width:1}
		.st16 {fill:url(#grad7-112)}
		.st17 {stroke:#000000;stroke-linecap:round;stroke-linejoin:round;stroke-width:0.72;visibility:hidden}
		.st18 {fill:#00ff00;fill-opacity:0.7}
		.st19 {fill:#000000;visibility:hidden}
		.st20 {fill:none;fill-rule:evenodd;font-size:12px;overflow:visible;stroke-linecap:square;stroke-miterlimit:3}
	]]>
	</style>

	<defs id="Patterns_And_Gradients">
		<linearGradient id="grad0-7" x1="0" y1="0" x2="1" y2="0" gradientTransform="rotate(270 0.5 0.5)">
			<stop offset="0" stop-color="#ffffff" stop-opacity="1"/>
			<stop offset="1" stop-color="#e1d8c1" stop-opacity="1"/>
		</linearGradient>
		<pattern id="grad11-12" x="0" y="0" width="1" height="1" patternContentUnits="objectBoundingBox">
			<path d="M 0 1 L 0 0 L 1 0 z" style="fill:url(#grad0-13)"/>
			<path d="M 0 1 L 1 1 L 1 0 z" style="fill:url(#grad0-14)"/>
		</pattern>
		<linearGradient id="grad0-13" x1="0" y1="0" x2="1" y2="0" gradientTransform="rotate(180 0.5 0.5)">
			<stop offset="0" stop-color="#ffffff" stop-opacity="1"/>
			<stop offset="1" stop-color="#c9ba96" stop-opacity="1"/>
		</linearGradient>
		<linearGradient id="grad0-14" x1="0" y1="0" x2="1" y2="0" gradientTransform="rotate(90 0.5 0.5)">
			<stop offset="0" stop-color="#ffffff" stop-opacity="1"/>
			<stop offset="1" stop-color="#c9ba96" stop-opacity="1"/>
		</linearGradient>
		<pattern id="grad12-19" x="0" y="0" width="1" height="1" patternContentUnits="objectBoundingBox">
			<path d="M 0 0 L 0 1 L 1 1 z" style="fill:url(#grad0-20)"/>
			<path d="M 0 0 L 1 0 L 1 1 z" style="fill:url(#grad0-21)"/>
		</pattern>
		<linearGradient id="grad0-20" x1="0" y1="0" x2="1" y2="0" gradientTransform="rotate(90 0.5 0.5)">
			<stop offset="0" stop-color="#ffffff" stop-opacity="1"/>
			<stop offset="1" stop-color="#b6a06d" stop-opacity="1"/>
		</linearGradient>
		<linearGradient id="grad0-21" x1="0" y1="0" x2="1" y2="0" gradientTransform="rotate(360 0.5 0.5)">
			<stop offset="0" stop-color="#ffffff" stop-opacity="1"/>
			<stop offset="1" stop-color="#b6a06d" stop-opacity="1"/>
		</linearGradient>
		<pattern id="grad12-28" x="0" y="0" width="1" height="1" patternContentUnits="objectBoundingBox">
			<path d="M 0 0 L 0 1 L 1 1 z" style="fill:url(#grad0-29)"/>
			<path d="M 0 0 L 1 0 L 1 1 z" style="fill:url(#grad0-30)"/>
		</pattern>
		<linearGradient id="grad0-29" x1="0" y1="0" x2="1" y2="0" gradientTransform="rotate(90 0.5 0.5)">
			<stop offset="0" stop-color="#ffffff" stop-opacity="1"/>
			<stop offset="1" stop-color="#339966" stop-opacity="1"/>
		</linearGradient>
		<linearGradient id="grad0-30" x1="0" y1="0" x2="1" y2="0" gradientTransform="rotate(360 0.5 0.5)">
			<stop offset="0" stop-color="#ffffff" stop-opacity="1"/>
			<stop offset="1" stop-color="#339966" stop-opacity="1"/>
		</linearGradient>
		<linearGradient id="grad0-34" x1="0" y1="0" x2="1" y2="0" gradientTransform="rotate(270 0.5 0.5)">
			<stop offset="0" stop-color="#ffffff" stop-opacity="1"/>
			<stop offset="1" stop-color="#e7e4cd" stop-opacity="1"/>
		</linearGradient>
		<pattern id="grad8-44" x="0" y="0" width="1" height="1" patternContentUnits="objectBoundingBox">
			<path d="M 0 0 L 1 0 L 1 1 z" style="fill:url(#grad0-34)"/>
			<path d="M 0 0 L 0 1 L 1 1 z" style="fill:url(#grad0-45)"/>
		</pattern>
		<linearGradient id="grad0-45" x1="0" y1="0" x2="1" y2="0" gradientTransform="rotate(180 0.5 0.5)">
			<stop offset="0" stop-color="#ffffff" stop-opacity="1"/>
			<stop offset="1" stop-color="#e7e4cd" stop-opacity="1"/>
		</linearGradient>
		<pattern id="grad10-49" x="0" y="0" width="1" height="1" patternContentUnits="objectBoundingBox">
			<path d="M 0.5 0.5 L 0 0 L 0 1 z" style="fill:url(#grad0-50)"/>
			<path d="M 0.5 0.5 L 1 0 L 1 1 z" style="fill:url(#grad0-51)"/>
			<path d="M 0.5 0.5 L 0 0 L 1 0 z" style="fill:url(#grad0-52)"/>
			<path d="M 0.5 0.5 L 0 1 L 1 1 z" style="fill:url(#grad0-53)"/>
		</pattern>
		<linearGradient id="grad0-50" x1="0" y1="0" x2="1" y2="0" gradientTransform="rotate(180 0.5 0.5)">
			<stop offset="0" stop-color="#000000" stop-opacity="0.4"/>
			<stop offset="1" stop-color="#e7e4cd" stop-opacity="0.4"/>
		</linearGradient>
		<linearGradient id="grad0-51" x1="0" y1="0" x2="1" y2="0" gradientTransform="rotate(360 0.5 0.5)">
			<stop offset="0" stop-color="#000000" stop-opacity="0.4"/>
			<stop offset="1" stop-color="#e7e4cd" stop-opacity="0.4"/>
		</linearGradient>
		<linearGradient id="grad0-52" x1="0" y1="0" x2="1" y2="0" gradientTransform="rotate(270 0.5 0.5)">
			<stop offset="0" stop-color="#000000" stop-opacity="0.4"/>
			<stop offset="1" stop-color="#e7e4cd" stop-opacity="0.4"/>
		</linearGradient>
		<linearGradient id="grad0-53" x1="0" y1="0" x2="1" y2="0" gradientTransform="rotate(90 0.5 0.5)">
			<stop offset="0" stop-color="#000000" stop-opacity="0.4"/>
			<stop offset="1" stop-color="#e7e4cd" stop-opacity="0.4"/>
		</linearGradient>
		<radialGradient id="grad7-112" cx="0" cy="0" r="1.4">
			<stop offset="0" stop-color="#ffffff" stop-opacity="1"/>
			<stop offset="1" stop-color="#0000ff" stop-opacity="1"/>
		</radialGradient>
	</defs>
	<g v:mID="0" v:index="1" v:groupContext="foregroundPage">
		<title>Page 1</title>
		<v:pageProperties v:drawingScale="0.0393701" v:pageScale="0.0393701" v:drawingUnits="24" v:shadowOffsetX="8.50394"
				v:shadowOffsetY="-8.50394"/>
		<v:layer v:name="Lien" v:index="0"/>
		<g id="group1-1" transform="translate(264.331,-160.155)" v:mID="1" v:groupContext="group">
			<v:custProps>
				<v:cp v:nameU="Manufacturer" v:lbl="Fabricant" v:type="0" v:sortKey="Equipment" v:invis="false" v:ask="false"
						v:langID="1036"/>
				<v:cp v:nameU="ProductNumber" v:lbl="Numéro de produit" v:type="0" v:sortKey="Equipment" v:invis="false"
						v:ask="false" v:langID="1036"/>
				<v:cp v:nameU="PartNumber" v:lbl="Numéro de référence" v:type="0" v:sortKey="Equipment" v:invis="false"
						v:ask="false" v:langID="1036"/>
				<v:cp v:nameU="ProductDescription" v:lbl="Description du produit" v:type="0" v:sortKey="Equipment" v:invis="false"
						v:ask="false" v:langID="1036"/>
				<v:cp v:nameU="AssetNumber" v:lbl="Numéro d&#39;inventaire" v:type="0" v:sortKey="Asset" v:invis="false"
						v:ask="false" v:langID="1036"/>
				<v:cp v:nameU="SerialNumber" v:lbl="Numéro de série" v:type="0" v:sortKey="Asset" v:invis="false" v:ask="false"
						v:langID="1036"/>
				<v:cp v:nameU="Location" v:lbl="Emplacement" v:type="0" v:sortKey="Asset" v:invis="false" v:ask="false"
						v:langID="1036"/>
				<v:cp v:nameU="Building" v:lbl="Bâtiment" v:type="0" v:sortKey="Asset" v:invis="false" v:ask="false"
						v:langID="1036"/>
				<v:cp v:nameU="Room" v:lbl="Salle" v:type="0" v:sortKey="Asset" v:invis="false" v:ask="false" v:langID="1036"/>
				<v:cp v:nameU="Department" v:lbl="Service" v:type="0" v:invis="false" v:ask="false" v:langID="1036"/>
				<v:cp v:nameU="NetworkName" v:lbl="Nom de réseau" v:type="0" v:sortKey="Network" v:invis="false" v:ask="false"
						v:langID="1036"/>
				<v:cp v:nameU="IPAddress" v:lbl="Adresse IP" v:type="0" v:sortKey="Network" v:invis="false" v:ask="false"
						v:langID="1036"/>
				<v:cp v:nameU="SubnetMask" v:lbl="Masque de sous-réseau" v:type="0" v:sortKey="Network" v:invis="false"
						v:ask="false" v:langID="1036"/>
				<v:cp v:nameU="AdminInterface" v:lbl="Interface d&#39;administration" v:type="0" v:sortKey="Network"
						v:invis="false" v:ask="false" v:langID="1036"/>
				<v:cp v:nameU="NumberofPorts" v:lbl="Nombre de ports" v:type="0" v:sortKey="Network" v:invis="false" v:ask="false"
						v:langID="1036"/>
				<v:cp v:nameU="CommunityString" v:lbl="Chaîne de communauté" v:type="0" v:sortKey="Network" v:invis="false"
						v:ask="false" v:langID="1036"/>
				<v:cp v:nameU="NetworkDescription" v:lbl="Description de réseau" v:type="0" v:sortKey="Network" v:invis="false"
						v:ask="false" v:langID="1036"/>
				<v:cp v:nameU="CPU" v:lbl="UC" v:type="0" v:sortKey="Workstation" v:invis="false" v:ask="false" v:langID="1036"/>
				<v:cp v:nameU="Memory" v:lbl="Mémoire" v:type="0" v:sortKey="Workstation" v:invis="false" v:ask="false"
						v:langID="1036"/>
				<v:cp v:nameU="OperatingSystem" v:lbl="Système d&#39;exploitation" v:type="0" v:sortKey="Workstation"
						v:invis="false" v:ask="false" v:langID="1036"/>
				<v:cp v:nameU="BelongsTo" v:lbl="Propriétaire" v:type="0" v:invis="true" v:ask="false" v:langID="1036"/>
				<v:cp v:nameU="ShapeClass" v:lbl="ShapeClass" v:type="0" v:invis="true" v:ask="false" v:langID="1036"
						v:val="VT4(Équipement)"/>
				<v:cp v:nameU="ShapeType" v:lbl="ShapeType" v:type="0" v:invis="true" v:ask="false" v:langID="1036"
						v:val="VT4(Serveur)"/>
				<v:cp v:nameU="MACAddress" v:lbl="Adresse MAC" v:type="0" v:sortKey="Network" v:invis="false" v:ask="false"
						v:langID="1036"/>
				<v:cp v:nameU="HardDriveSize" v:lbl="Capacité du disque dur" v:type="0" v:sortKey="Workstation" v:invis="false"
						v:ask="false" v:langID="1036"/>
			</v:custProps>
			<v:userDefs>
				<v:ud v:nameU="HasText" v:val="VT0(0):5"/>
				<v:ud v:nameU="ShapeClass" v:val="VT0(5):26"/>
				<v:ud v:nameU="ShapeType" v:val="VT0(24):26"/>
				<v:ud v:nameU="SolSH" v:val="VT15({BF0433D9-CD73-4EB5-8390-8653BE590246}):41"/>
				<v:ud v:nameU="visLegendShape" v:val="VT0(2):26"/>
				<v:ud v:nameU="visVersion" v:prompt="" v:val="VT0(15):26"/>
			</v:userDefs>
			<title>Serveur</title>
			<g id="shape2-2" v:mID="2" v:groupContext="shape">
				<title>Feuille.2</title>
				<path d="M272.47 272.97 L167.67 216.86 L0 308.2 L0.06 542.81 A176.418 164.751 -180 0 0 103.46 595.28 L272.47 503.93
							 L272.47 272.97 ZM46.52 344.74 A182.067 170.027 -180 0 0 103.46 364.96 A180.034 168.127 0 0 1 46.52 344.74
							 Z" class="st1"/>
			</g>
			<g id="shape3-4" v:mID="3" v:groupContext="shape" transform="translate(0,-230.313)">
				<title>Feuille.3</title>
				<path d="M103.4 595.27 L272.47 503.28 L167.67 447.17 L0 538.51 A182.067 170.027 -180 0 0 103.46 595.28 L103.4 595.27
							 Z" class="st2"/>
				<path d="M103.4 595.27 L272.47 503.28 L167.67 447.17 L0 538.51 A182.067 170.027 -180 0 0 103.46 595.28" class="st3"/>
			</g>
			<g id="shape4-9" v:mID="4" v:groupContext="shape" transform="translate(0.061911,-1.93268E-012)">
				<title>Feuille.4</title>
				<path d="M103.4 364.96 A180.034 168.127 0 0 1 0 307.93 L0 542.81 A176.418 164.751 -180 0 0 103.4 595.28 L103.34 364.96
							 L103.4 364.96 Z" class="st4"/>
				<path d="M103.4 364.96 A180.034 168.127 0 0 1 0 307.93 L0 542.81 A176.418 164.751 -180 0 0 103.4 595.28 L103.34 364.96"
						class="st5"/>
			</g>
			<g id="shape5-16" v:mID="5" v:groupContext="shape" transform="translate(103.398,-0.260304)">
				<title>Feuille.5</title>
				<path d="M0 365.22 L0 595.28 L169.07 504.19 L169.07 273.23 L0 365.22 Z" class="st6"/>
			</g>
			<g id="shape6-22" v:mID="6" v:groupContext="shape" transform="translate(0,-0.00834186)">
				<title>Feuille.6</title>
				<path d="M272.47 272.97 L167.67 216.86 L0 308.2 L0.06 542.81 A176.418 164.751 -180 0 0 103.46 595.28 L272.47 503.93
							 L272.47 272.97" class="st7"/>
			</g>
			<g id="shape7-25" v:mID="7" v:groupContext="shape" transform="translate(-159.768,-85.753) rotate(-20)">
				<title>Feuille.7</title>
				<ellipse cx="7.91445" cy="584.499" rx="7.91445" ry="10.777" class="st8"/>
			</g>
			<g id="shape8-31" v:mID="8" v:groupContext="shape" transform="translate(16.7673,-33.2824)">
				<title>Feuille.8</title>
				<path d="M0 531.34 A201.963 184.459 -96.44 0 0 69.86 567.22" class="st9"/>
				<path d="M0 545.36 A201.963 184.459 -96.44 0 0 69.86 581.25" class="st9"/>
				<path d="M0 559.39 A201.963 184.459 -96.44 0 0 69.86 595.28" class="st9"/>
			</g>
			<g id="group9-38" transform="translate(13.9727,-163.117)" v:mID="9" v:groupContext="group">
				<title>Feuille.9</title>
				<g id="shape10-39" v:mID="10" v:groupContext="shape" transform="translate(0,-37.752)">
					<title>Feuille.10</title>
					<path d="M2.49 559.39 A176.211 164.558 -180 0 0 72.35 595.28 A3.58051 3.34372 -180 0 0 72.35 588.75 A171.417
								 160.08 0 0 1 3.89 553.91 A2.31964 2.16624 -180 0 0 0.01 555.75 A5.05555 4.72121 -180 0 0 2.49 559.39
								 Z" class="st10"/>
				</g>
				<g id="shape11-41" v:mID="11" v:groupContext="shape" transform="translate(22.2189,-45.9758)">
					<title>Feuille.11</title>
					<path d="M21.49 595.01 A26.1827 15.939 -90.9 0 0 0.53 584.57 A17.2269 8.58873 -180 0 0 21.49 595.01 Z"
							class="st11"/>
				</g>
				<g id="shape12-46" v:mID="12" v:groupContext="shape" transform="translate(2.79454,-0.326216)">
					<title>Feuille.12</title>
					<path d="M0 541.12 L0 559.39 A189.55 177.014 -180 0 0 69.86 595.28 L69.86 577.01 A195.753 182.808 0 0 1 -0 541.12
								 Z" class="st12"/>
				</g>
				<g id="shape13-54" v:mID="13" v:groupContext="shape" transform="translate(2.79454,-10.4389)">
					<title>Feuille.13</title>
					<path d="M0 559.39 A171.564 160.218 -180 0 0 69.86 595.28 L69.86 590.71 A189.626 177.086 0 0 1 -0 554.82 L0 559.39
								 Z" class="st13"/>
				</g>
				<g id="shape14-56" v:mID="14" v:groupContext="shape" transform="translate(2.79454,-0.652433)">
					<title>Feuille.14</title>
					<path d="M0 541.12 L0 559.39 A189.55 177.014 -180 0 0 69.86 595.28" class="st3"/>
				</g>
				<g id="shape15-59" v:mID="15" v:groupContext="shape" transform="translate(2.79454,3.41061E-013)">
					<title>Feuille.15</title>
					<path d="M69.86 595.28 L69.86 577.01 A195.753 182.808 0 0 1 -0 541.12" class="st14"/>
				</g>
			</g>
		</g>
		<g id="group35-63" transform="translate(396.85,-103.462)" v:mID="35" v:groupContext="group">
			<v:custProps>
				<v:cp v:nameU="Manufacturer" v:lbl="Fabricant" v:type="0" v:sortKey="Equipment" v:invis="false" v:langID="1036"/>
				<v:cp v:nameU="ProductNumber" v:lbl="Numéro de produit" v:type="0" v:sortKey="Equipment" v:invis="false"
						v:langID="1036"/>
				<v:cp v:nameU="PartNumber" v:lbl="Numéro de référence" v:type="0" v:sortKey="Equipment" v:invis="false"
						v:langID="1036"/>
				<v:cp v:nameU="ProductDescription" v:lbl="Description du produit" v:type="0" v:sortKey="Equipment" v:invis="false"
						v:langID="1036"/>
				<v:cp v:nameU="AssetNumber" v:lbl="Numéro d&#39;inventaire" v:type="0" v:sortKey="Asset" v:invis="false"
						v:langID="1036"/>
				<v:cp v:nameU="SerialNumber" v:lbl="Numéro de série" v:type="0" v:sortKey="Asset" v:invis="false" v:langID="1036"/>
				<v:cp v:nameU="Location" v:lbl="Emplacement" v:type="0" v:sortKey="Asset" v:invis="false" v:langID="1036"/>
				<v:cp v:nameU="Building" v:lbl="Bâtiment" v:type="0" v:sortKey="Asset" v:invis="false" v:langID="1036"/>
				<v:cp v:nameU="Room" v:lbl="Salle" v:type="0" v:sortKey="Asset" v:invis="false" v:langID="1036"/>
				<v:cp v:nameU="Department" v:lbl="Service" v:langID="1036"/>
				<v:cp v:nameU="ShapeClass" v:lbl="ShapeClass" v:type="0" v:invis="true" v:ask="false" v:langID="1036"
						v:val="VT4(Équipement)"/>
				<v:cp v:nameU="ShapeType" v:lbl="ShapeType" v:type="0" v:invis="true" v:ask="false" v:langID="1036"
						v:val="VT4(Serveur)"/>
				<v:cp v:nameU="SubShapeType" v:lbl="SubShapeType" v:type="0" v:invis="true" v:ask="false" v:langID="1036"
						v:val="VT4(Web)"/>
				<v:cp v:nameU="NetworkName" v:lbl="Nom de réseau" v:type="0" v:sortKey="Network" v:invis="false" v:ask="false"
						v:langID="1036"/>
				<v:cp v:nameU="IPAddress" v:lbl="Adresse IP" v:type="0" v:sortKey="Network" v:invis="false" v:ask="false"
						v:langID="1036"/>
				<v:cp v:nameU="SubnetMask" v:lbl="Masque de sous-réseau" v:type="0" v:sortKey="Network" v:invis="false"
						v:ask="false" v:langID="1036"/>
				<v:cp v:nameU="AdminInterface" v:lbl="Interface d&#39;administration" v:type="0" v:sortKey="Network"
						v:invis="false" v:ask="false" v:langID="1036"/>
				<v:cp v:nameU="NumberofPorts" v:lbl="Nombre de ports" v:type="0" v:sortKey="Network" v:invis="false" v:ask="false"
						v:langID="1036"/>
				<v:cp v:nameU="MACAddress" v:lbl="Adresse MAC" v:type="0" v:sortKey="Network" v:invis="false" v:ask="false"
						v:langID="1036"/>
				<v:cp v:nameU="CommunityString" v:lbl="Chaîne de communauté" v:type="0" v:sortKey="Network" v:invis="false"
						v:ask="false" v:langID="1036"/>
				<v:cp v:nameU="NetworkDescription" v:lbl="Description de réseau" v:type="0" v:sortKey="Network" v:invis="false"
						v:ask="false" v:langID="1036"/>
				<v:cp v:nameU="HardDriveSize" v:lbl="Capacité du disque dur" v:type="0" v:sortKey="Workstation" v:invis="false"
						v:ask="false" v:langID="1036"/>
				<v:cp v:nameU="CPU" v:lbl="UC" v:type="0" v:sortKey="Workstation" v:invis="false" v:ask="false" v:langID="1036"/>
				<v:cp v:nameU="Memory" v:lbl="Mémoire" v:type="0" v:sortKey="Workstation" v:invis="false" v:ask="false"
						v:langID="1036"/>
				<v:cp v:nameU="OperatingSystem" v:lbl="Système d&#39;exploitation" v:type="0" v:sortKey="Workstation"
						v:invis="false" v:ask="false" v:langID="1036"/>
			</v:custProps>
			<v:userDefs>
				<v:ud v:nameU="HasText" v:val="VT0(0):5"/>
				<v:ud v:nameU="SolSH" v:val="VT15({BF0433D9-CD73-4EB5-8390-8653BE590246}):41"/>
				<v:ud v:nameU="ShapeClass" v:val="VT0(5):26"/>
				<v:ud v:nameU="ShapeType" v:val="VT0(24):26"/>
				<v:ud v:nameU="SubShapeType" v:val="VT0(74):26"/>
				<v:ud v:nameU="visLegendShape" v:val="VT0(2):26"/>
				<v:ud v:nameU="visVersion" v:prompt="" v:val="VT0(15):26"/>
			</v:userDefs>
			<title>Serveur Web</title>
			<g id="shape36-64" v:mID="36" v:groupContext="shape">
				<title>Feuille.36</title>
				<path d="M242.65 533.25 A34.3763 32.5076 -178.74 0 0 241.73 525.02 A53.1782 51.701 -180 0 0 240.77 521.01 L272.47
							 503.93 L272.47 272.97 L167.67 216.86 L0 308.2 L0.06 542.81 A176.418 164.751 -180 0 0 103.46 595.28 L150.35
							 569.72 A53.1782 51.701 -180 0 0 230.82 567.26 A53.1782 51.701 -180 0 0 236.33 559.21 A52.2742 49.4329
							 -1.36 0 0 242.65 533.25 ZM46.52 344.74 A182.067 170.027 -180 0 0 103.46 364.96 A180.034 168.127 0 0
							 1 46.52 344.74 Z" class="st1"/>
			</g>
			<g id="shape37-66" v:mID="37" v:groupContext="shape" transform="translate(0,-230.313)">
				<title>Feuille.37</title>
				<path d="M103.4 595.27 L272.47 503.28 L167.67 447.17 L0 538.51 A182.067 170.027 -180 0 0 103.46 595.28 L103.4 595.27
							 Z" class="st2"/>
				<path d="M103.4 595.27 L272.47 503.28 L167.67 447.17 L0 538.51 A182.067 170.027 -180 0 0 103.46 595.28" class="st3"/>
			</g>
			<g id="shape38-70" v:mID="38" v:groupContext="shape" transform="translate(0.061911,-1.93268E-012)">
				<title>Feuille.38</title>
				<path d="M103.4 364.96 A180.034 168.127 0 0 1 -0 307.93 L0 542.81 A176.418 164.751 -180 0 0 103.4 595.28 L103.34
							 364.96 L103.4 364.96 Z" class="st4"/>
				<path d="M103.4 364.96 A180.034 168.127 0 0 1 -0 307.93 L0 542.81 A176.418 164.751 -180 0 0 103.4 595.28 L103.34
							 364.96" class="st3"/>
			</g>
			<g id="shape39-74" v:mID="39" v:groupContext="shape" transform="translate(103.398,-0.260304)">
				<title>Feuille.39</title>
				<path d="M0 365.22 L0 595.28 L169.07 504.19 L169.07 273.23 L0 365.22 Z" class="st6"/>
			</g>
			<g id="shape40-77" v:mID="40" v:groupContext="shape" transform="translate(0,-0.00834186)">
				<title>Feuille.40</title>
				<path d="M272.47 272.97 L167.67 216.86 L0 308.2 L0.06 542.81 A176.418 164.751 -180 0 0 103.46 595.28 L272.47 503.93
							 L272.47 272.97" class="st15"/>
			</g>
			<g id="shape41-80" v:mID="41" v:groupContext="shape" transform="translate(-159.768,-85.753) rotate(-20)">
				<title>Feuille.41</title>
				<ellipse cx="7.91445" cy="584.499" rx="7.91445" ry="10.777" class="st8"/>
			</g>
			<g id="shape42-83" v:mID="42" v:groupContext="shape" transform="translate(16.7673,-33.2824)">
				<title>Feuille.42</title>
				<path d="M0 531.34 A201.963 184.459 -96.44 0 0 69.86 567.22" class="st9"/>
				<path d="M0 545.36 A201.963 184.459 -96.44 0 0 69.86 581.25" class="st9"/>
				<path d="M-0 559.39 A201.963 184.459 -96.44 0 0 69.86 595.28" class="st9"/>
			</g>
			<g id="group43-89" transform="translate(13.9727,-163.117)" v:mID="43" v:groupContext="group">
				<title>Feuille.43</title>
				<g id="shape44-90" v:mID="44" v:groupContext="shape" transform="translate(0,-37.752)">
					<title>Feuille.44</title>
					<path d="M2.49 559.39 A176.211 164.558 -180 0 0 72.35 595.28 A3.58051 3.34372 -180 0 0 72.35 588.75 A171.417
								 160.08 0 0 1 3.89 553.91 A2.31964 2.16624 -180 0 0 0.01 555.75 A5.05555 4.72121 -180 0 0 2.49 559.39
								 Z" class="st10"/>
				</g>
				<g id="shape45-92" v:mID="45" v:groupContext="shape" transform="translate(22.2189,-45.9758)">
					<title>Feuille.45</title>
					<path d="M21.49 595.01 A26.1827 15.939 -90.9 0 0 0.53 584.57 A17.2269 8.58873 -180 0 0 21.49 595.01 Z"
							class="st11"/>
				</g>
				<g id="shape46-95" v:mID="46" v:groupContext="shape" transform="translate(2.79454,-0.326216)">
					<title>Feuille.46</title>
					<path d="M0 541.12 L0 559.39 A189.55 177.014 -180 0 0 69.86 595.28 L69.86 577.01 A195.753 182.808 0 0 1 0 541.12
								 Z" class="st12"/>
				</g>
				<g id="shape47-98" v:mID="47" v:groupContext="shape" transform="translate(2.79454,-10.4389)">
					<title>Feuille.47</title>
					<path d="M0 559.39 A171.564 160.218 -180 0 0 69.86 595.28 L69.86 590.71 A189.626 177.086 0 0 1 -0 554.82 L0 559.39
								 Z" class="st13"/>
				</g>
				<g id="shape48-100" v:mID="48" v:groupContext="shape" transform="translate(2.79454,-0.652433)">
					<title>Feuille.48</title>
					<path d="M0 541.12 L0 559.39 A189.55 177.014 -180 0 0 69.86 595.28" class="st3"/>
				</g>
				<g id="shape49-103" v:mID="49" v:groupContext="shape" transform="translate(2.79454,3.41061E-013)">
					<title>Feuille.49</title>
					<path d="M69.86 595.28 L69.86 577.01 A195.753 182.808 0 0 1 0 541.12" class="st14"/>
				</g>
			</g>
			<g id="group50-107" transform="translate(136.317,-8.81736)" v:mID="50" v:groupContext="group">
				<v:userDefs>
					<v:ud v:nameU="IsVisable" v:val="VT0(1):5"/>
				</v:userDefs>
				<title>Feuille.50</title>
				<g id="group51-108" transform="translate(0,-0.0274315)" v:mID="51" v:groupContext="group">
					<title>Feuille.51</title>
					<g id="shape52-109" v:mID="52" v:groupContext="shape">
						<title>Feuille.52</title>
						<ellipse cx="53.1782" cy="543.575" rx="53.1782" ry="51.701" class="st16"/>
						<ellipse cx="53.1782" cy="543.575" rx="53.1782" ry="51.701" class="st17"/>
					</g>
					<g id="shape53-114" v:mID="53" v:groupContext="shape" transform="translate(4.42328,-1.15993)">
						<title>Feuille.53</title>
						<path d="M42.14 595.28 L48.3 579.44 A28.0356 26.5244 -3.94 0 0 58.39 563.24 A12.9014 12.1994 -180 0 0 48.51
									 553.5 A13.9149 13.1577 -180 0 0 38.57 559.25 L36.1 555.43 A10.5542 10.2611 -180 0 0 43.16 547.44
									 A19.7873 18.7106 0 0 1 35.2 541.57 L44 534.55 L46.26 525.2 L39.64 521.02 L43.82 515.99 L36 510.61
									 L38.12 504.7 L50.39 508.1 L49.9 517.87 L54.75 519.31 L61.3 516.32 L66.53 520.48 L72.87 534.72
									 L70.93 542.58 L66.48 545.43 L68.38 550.74 A8.93978 8.45333 -180 0 0 81.81 556.17 A10.2465 9.68895
									 0 0 1 87.65 565.17 L89.93 577.14 A52.2742 49.4329 -1.36 0 0 101.91 543.26 A34.3763 32.5076 -178.74
									 0 0 96.06 524.38 A37.4397 35.4025 -180 0 0 86.97 511.55 A10.2051 9.64978 -180 0 0 79.5 518.46
									 L81.74 525.39 A6.77822 6.40939 0 0 1 73.57 525 L72.46 535.28 A82.7813 78.2768 -180 0 0 66.9
									 521.81 L73.78 519.14 L71.2 515.33 L66.55 514.3 L66.7 511.2 L68.9 499.19 L57.4 495.99 L51.66
									 499 L47.84 495.14 L41.14 494.52 L26.69 502.3 L33.37 506.32 L28.49 513.75 A7.09761 6.7114 0 0
									 1 34.69 521.42 A2.67785 2.53214 0 0 1 30.95 524.32 A4.23245 4.00214 0 0 1 25.16 520.03 L27.12
									 511.89 L24.78 503.97 L14.48 505.58 L14.73 510.55 L12.36 512.68 L7.46 512.23 A41.7736 40.6132
									 -180 0 0 0 524.3 L5.75 526.43 A19.9421 18.857 0 0 1 10.12 539.89 A18.5956 17.5838 -180 0 0 27.87
									 549.22 A13.2772 12.5547 0 0 1 37.05 560.76 A7.22694 6.8337 -180 0 0 35.68 569.59 L42 572.61
									 A8.45283 7.99287 0 0 1 38.58 579.91 A22.9365 21.6884 -180 0 0 42.14 595.28 Z" class="st18"/>
					</g>
				</g>
				<g id="shape54-117" v:mID="54" v:groupContext="shape" transform="translate(0.0143426,-5.68434E-013)">
					<title>Feuille.54</title>
					<ellipse cx="53.1799" cy="543.582" rx="53.1799" ry="51.6932" class="st19"/>
					<ellipse cx="53.1799" cy="543.582" rx="53.1799" ry="51.6932" class="st15"/>
				</g>
			</g>
		</g>
	</g>
</svg>
