<?xml version="1.0" encoding="UTF-8" standalone="no"?>
<!DOCTYPE svg PUBLIC "-//W3C//DTD SVG 1.1//EN" "http://www.w3.org/Graphics/SVG/1.1/DTD/svg11.dtd">
<!-- Généré par Microsoft Visio, SVG Export server_RS.svg Page-2 -->
<svg xmlns="http://www.w3.org/2000/svg" xmlns:xlink="http://www.w3.org/1999/xlink" xmlns:ev="http://www.w3.org/2001/xml-events"
		xmlns:v="http://schemas.microsoft.com/visio/2003/SVGExtensions/" width="0.3in" height="0.5in" viewBox="0 0 21.6 36"
		xml:space="preserve" color-interpolation-filters="sRGB" class="st7">
	<v:documentProperties v:langID="2060" v:viewMarkup="false"/>

	<style type="text/css">
	<![CDATA[
		.st1 {fill:#02709f}
		.st2 {stroke:#02709f;stroke-linecap:butt;stroke-width:0.75;visibility:hidden}
		.st3 {fill:none;stroke:#ffffff;stroke-linecap:butt;stroke-width:0.401274}
		.st4 {fill:#000000}
		.st5 {fill:none}
		.st6 {stroke:#ffffff;stroke-linecap:butt;stroke-width:0.401274}
		.st7 {fill:none;fill-rule:evenodd;font-size:12px;overflow:visible;stroke-linecap:square;stroke-miterlimit:3}
	]]>
	</style>

	<g v:mID="4" v:index="2" v:groupContext="foregroundPage">
		<title>Page 2</title>
		<v:pageProperties v:drawingScale="1" v:pageScale="1" v:drawingUnits="19" v:shadowOffsetX="9" v:shadowOffsetY="-9"/>
		<g id="group1-1" transform="translate(-1.59435,0)" v:mID="1" v:groupContext="group">
			<title>Feuille.1</title>
			<g id="shape2-2" v:mID="2" v:groupContext="shape" transform="translate(1.3758,-1.38576)">
				<title>Feuille.2</title>
				<rect x="0" y="5.28228" width="14.3312" height="30.7177" class="st1"/>
				<rect x="0" y="5.28228" width="14.3312" height="30.7177" class="st2"/>
			</g>
			<g id="shape3-5" v:mID="3" v:groupContext="shape" transform="translate(1.3758,-1.38576)">
				<title>Feuille.3</title>
				<rect x="0" y="5.28228" width="14.3312" height="30.7177" class="st3"/>
			</g>
			<g id="shape4-7" v:mID="4" v:groupContext="shape" transform="translate(1.3758,-32.1035)">
				<title>Feuille.4</title>
				<path d="M0 36 L2.75 33.23 L16.51 33.23 L14.33 36 L0 36 Z" class="st1"/>
			</g>
			<g id="shape5-10" v:mID="5" v:groupContext="shape" transform="translate(1.3758,-32.1035)">
				<title>Feuille.5</title>
				<path d="M0 36 L2.75 33.23 L16.51 33.23 L14.33 36 L0 36 Z" class="st3"/>
			</g>
			<g id="shape6-12" v:mID="6" v:groupContext="shape" transform="translate(15.707,-1.38576)">
				<title>Feuille.6</title>
				<path d="M0 36 L2.18 31.73 L2.18 2.51 L0 5.28 L0 36 Z" class="st1"/>
			</g>
			<g id="shape7-15" v:mID="7" v:groupContext="shape" transform="translate(15.707,-1.38576)">
				<title>Feuille.7</title>
				<path d="M0 36 L2.18 31.73 L2.18 2.51 L0 5.28 L0 36 Z" class="st3"/>
			</g>
			<g id="shape8-17" v:mID="8" v:groupContext="shape">
				<title>Feuille.8</title>
				<path d="M16.8 36 L15.71 34.61 L1.38 34.61 L0 36 L16.8 36 Z" class="st1"/>
			</g>
			<g id="shape9-20" v:mID="9" v:groupContext="shape">
				<title>Feuille.9</title>
				<path d="M16.8 36 L15.71 34.61 L1.38 34.61 L0 36 L16.8 36 Z" class="st3"/>
			</g>
			<g id="shape10-22" v:mID="10" v:groupContext="shape" transform="translate(15.707,0)">
				<title>Feuille.10</title>
				<path d="M1.09 36 L3.32 31.21 L2.18 30.34 L0 34.61 L1.09 36 Z" class="st1"/>
			</g>
			<g id="shape11-25" v:mID="11" v:groupContext="shape" transform="translate(15.707,0)">
				<title>Feuille.11</title>
				<path d="M1.09 36 L3.32 31.21 L2.18 30.34 L0 34.61 L1.09 36 Z" class="st3"/>
			</g>
			<g id="shape12-27" v:mID="12" v:groupContext="shape" transform="translate(1.3758,-1.38576)">
				<title>Feuille.12</title>
				<path d="M14.33 36 L0 36 L14.33 36 Z" class="st4"/>
			</g>
			<g id="shape13-30" v:mID="13" v:groupContext="shape" transform="translate(1.3758,-1.38576)">
				<title>Feuille.13</title>
				<path d="M14.33 36 L0 36 L14.33 36 Z" class="st5"/>
				<path d="M14.33 36 L0 36" class="st6"/>
			</g>
			<g id="shape14-33" v:mID="14" v:groupContext="shape" transform="translate(15.707,-1.38576)">
				<title>Feuille.14</title>
				<path d="M2.18 31.73 L0 36 L2.18 31.73 Z" class="st4"/>
			</g>
			<g id="shape15-36" v:mID="15" v:groupContext="shape" transform="translate(15.707,-1.38576)">
				<title>Feuille.15</title>
				<path d="M2.18 31.73 L0 36 L2.18 31.73 Z" class="st5"/>
				<path d="M2.18 31.73 L0 36" class="st6"/>
			</g>
			<g id="shape16-39" v:mID="16" v:groupContext="shape" transform="translate(1.3758,-30.7177)">
				<title>Feuille.16</title>
				<path d="M0 36 L14.27 36 L0 36 Z" class="st1"/>
			</g>
			<g id="shape17-42" v:mID="17" v:groupContext="shape" transform="translate(1.3758,-30.7177)">
				<title>Feuille.17</title>
				<path d="M0 36 L14.27 36 L0 36 Z" class="st5"/>
				<path d="M0 36 L14.27 36" class="st6"/>
			</g>
			<g id="shape18-45" v:mID="18" v:groupContext="shape" transform="translate(1.3758,-30.5445)">
				<title>Feuille.18</title>
				<path d="M0 36 L14.22 36 L0 36 Z" class="st1"/>
			</g>
			<g id="shape19-48" v:mID="19" v:groupContext="shape" transform="translate(1.3758,-30.5445)">
				<title>Feuille.19</title>
				<path d="M0 36 L14.22 36 L0 36 Z" class="st5"/>
				<path d="M0 36 L14.22 36" class="st6"/>
			</g>
			<g id="shape20-51" v:mID="20" v:groupContext="shape" transform="translate(2.35032,-25.8675)">
				<title>Feuille.20</title>
				<path d="M10.38 35.02 L0 35.02 L0 36 L1.89 36 L10.38 35.02 Z" class="st4"/>
			</g>
			<g id="shape21-54" v:mID="21" v:groupContext="shape" transform="translate(2.35032,-25.8675)">
				<title>Feuille.21</title>
				<path d="M10.38 35.02 L0 35.02 L0 36 L1.89 36 L10.38 35.02 Z" class="st5"/>
				<path d="M10.38 35.02 L0 35.02 L0 36 L1.89 36" class="st6"/>
			</g>
			<g id="shape22-57" v:mID="22" v:groupContext="shape" transform="translate(2.35032,-24.0776)">
				<title>Feuille.22</title>
				<path d="M10.38 35.02 L0 35.02 L0 36 L1.89 36 L10.38 35.02 Z" class="st4"/>
			</g>
			<g id="shape23-60" v:mID="23" v:groupContext="shape" transform="translate(2.35032,-24.0776)">
				<title>Feuille.23</title>
				<path d="M10.38 35.02 L0 35.02 L0 36 L1.89 36 L10.38 35.02 Z" class="st5"/>
				<path d="M10.38 35.02 L0 35.02 L0 36 L1.89 36" class="st6"/>
			</g>
			<g id="shape24-63" v:mID="24" v:groupContext="shape" transform="translate(2.35032,-22.2877)">
				<title>Feuille.24</title>
				<path d="M10.38 35.02 L0 35.02 L0 36 L1.89 36 L10.38 35.02 Z" class="st4"/>
			</g>
			<g id="shape25-66" v:mID="25" v:groupContext="shape" transform="translate(2.35032,-22.2877)">
				<title>Feuille.25</title>
				<path d="M10.38 35.02 L0 35.02 L0 36 L1.89 36 L10.38 35.02 Z" class="st5"/>
				<path d="M10.38 35.02 L0 35.02 L0 36 L1.89 36" class="st6"/>
			</g>
			<g id="shape26-69" v:mID="26" v:groupContext="shape" transform="translate(2.35032,-20.4977)">
				<title>Feuille.26</title>
				<path d="M10.38 35.02 L0 35.02 L0 36 L1.89 36 L10.38 35.02 Z" class="st4"/>
			</g>
			<g id="shape27-72" v:mID="27" v:groupContext="shape" transform="translate(2.35032,-20.4977)">
				<title>Feuille.27</title>
				<path d="M10.38 35.02 L0 35.02 L0 36 L1.89 36 L10.38 35.02 Z" class="st5"/>
				<path d="M10.38 35.02 L0 35.02 L0 36 L1.89 36" class="st6"/>
			</g>
			<g id="shape28-75" v:mID="28" v:groupContext="shape" transform="translate(2.35032,-18.7655)">
				<title>Feuille.28</title>
				<path d="M10.38 35.08 L0 35.08 L0 36 L1.89 36 L10.38 35.08 Z" class="st4"/>
			</g>
			<g id="shape29-78" v:mID="29" v:groupContext="shape" transform="translate(2.35032,-18.7655)">
				<title>Feuille.29</title>
				<path d="M10.38 35.08 L0 35.08 L0 36 L1.89 36 L10.38 35.08 Z" class="st5"/>
				<path d="M10.38 35.08 L0 35.08 L0 36 L1.89 36" class="st6"/>
			</g>
			<g id="shape30-81" v:mID="30" v:groupContext="shape" transform="translate(2.35032,-16.9756)">
				<title>Feuille.30</title>
				<path d="M10.38 35.08 L0 35.08 L0 36 L1.89 36 L10.38 35.08 Z" class="st4"/>
			</g>
			<g id="shape31-84" v:mID="31" v:groupContext="shape" transform="translate(2.35032,-16.9756)">
				<title>Feuille.31</title>
				<path d="M10.38 35.08 L0 35.08 L0 36 L1.89 36 L10.38 35.08 Z" class="st5"/>
				<path d="M10.38 35.08 L0 35.08 L0 36 L1.89 36" class="st6"/>
			</g>
			<g id="shape32-87" v:mID="32" v:groupContext="shape" transform="translate(2.35032,-15.1856)">
				<title>Feuille.32</title>
				<path d="M10.38 35.08 L0 35.08 L0 36 L1.89 36 L10.38 35.08 Z" class="st4"/>
			</g>
			<g id="shape33-90" v:mID="33" v:groupContext="shape" transform="translate(2.35032,-15.1856)">
				<title>Feuille.33</title>
				<path d="M10.38 35.08 L0 35.08 L0 36 L1.89 36 L10.38 35.08 Z" class="st5"/>
				<path d="M10.38 35.08 L0 35.08 L0 36 L1.89 36" class="st6"/>
			</g>
			<g id="shape34-93" v:mID="34" v:groupContext="shape" transform="translate(2.35032,-13.3957)">
				<title>Feuille.34</title>
				<path d="M10.38 35.08 L0 35.08 L0 36 L1.89 36 L10.38 35.08 Z" class="st4"/>
			</g>
			<g id="shape35-96" v:mID="35" v:groupContext="shape" transform="translate(2.35032,-13.3957)">
				<title>Feuille.35</title>
				<path d="M10.38 35.08 L0 35.08 L0 36 L1.89 36 L10.38 35.08 Z" class="st5"/>
				<path d="M10.38 35.08 L0 35.08 L0 36 L1.89 36" class="st6"/>
			</g>
			<g id="shape36-99" v:mID="36" v:groupContext="shape" transform="translate(2.35032,-11.6058)">
				<title>Feuille.36</title>
				<path d="M10.38 35.02 L0 35.02 L0 36 L1.89 36 L10.38 35.02 Z" class="st4"/>
			</g>
			<g id="shape37-102" v:mID="37" v:groupContext="shape" transform="translate(2.35032,-11.6058)">
				<title>Feuille.37</title>
				<path d="M10.38 35.02 L0 35.02 L0 36 L1.89 36 L10.38 35.02 Z" class="st5"/>
				<path d="M10.38 35.02 L0 35.02 L0 36 L1.89 36" class="st6"/>
			</g>
			<g id="shape38-105" v:mID="38" v:groupContext="shape" transform="translate(2.35032,-9.81581)">
				<title>Feuille.38</title>
				<path d="M10.38 35.02 L0 35.02 L0 36 L1.89 36 L10.38 35.02 Z" class="st4"/>
			</g>
			<g id="shape39-108" v:mID="39" v:groupContext="shape" transform="translate(2.35032,-9.81581)">
				<title>Feuille.39</title>
				<path d="M10.38 35.02 L0 35.02 L0 36 L1.89 36 L10.38 35.02 Z" class="st5"/>
				<path d="M10.38 35.02 L0 35.02 L0 36 L1.89 36" class="st6"/>
			</g>
			<g id="shape40-111" v:mID="40" v:groupContext="shape" transform="translate(2.35032,-8.02587)">
				<title>Feuille.40</title>
				<path d="M10.38 35.02 L0 35.02 L0 36 L1.89 36 L10.38 35.02 Z" class="st4"/>
			</g>
			<g id="shape41-114" v:mID="41" v:groupContext="shape" transform="translate(2.35032,-8.02587)">
				<title>Feuille.41</title>
				<path d="M10.38 35.02 L0 35.02 L0 36 L1.89 36 L10.38 35.02 Z" class="st5"/>
				<path d="M10.38 35.02 L0 35.02 L0 36 L1.89 36" class="st6"/>
			</g>
			<g id="shape42-117" v:mID="42" v:groupContext="shape" transform="translate(2.35032,-6.23593)">
				<title>Feuille.42</title>
				<path d="M10.38 35.02 L0 35.02 L0 36 L1.89 36 L10.38 35.02 Z" class="st4"/>
			</g>
			<g id="shape43-120" v:mID="43" v:groupContext="shape" transform="translate(2.35032,-6.23593)">
				<title>Feuille.43</title>
				<path d="M10.38 35.02 L0 35.02 L0 36 L1.89 36 L10.38 35.02 Z" class="st5"/>
				<path d="M10.38 35.02 L0 35.02 L0 36 L1.89 36" class="st6"/>
			</g>
			<g id="shape44-123" v:mID="44" v:groupContext="shape" transform="translate(2.35032,-4.44599)">
				<title>Feuille.44</title>
				<path d="M10.38 35.02 L0 35.02 L0 36 L1.89 36 L10.38 35.02 Z" class="st4"/>
			</g>
			<g id="shape45-126" v:mID="45" v:groupContext="shape" transform="translate(2.35032,-4.44599)">
				<title>Feuille.45</title>
				<path d="M10.38 35.02 L0 35.02 L0 36 L1.89 36 L10.38 35.02 Z" class="st5"/>
				<path d="M10.38 35.02 L0 35.02 L0 36 L1.89 36" class="st6"/>
			</g>
			<g id="shape46-129" v:mID="46" v:groupContext="shape" transform="translate(2.35032,-2.65604)">
				<title>Feuille.46</title>
				<path d="M10.38 35.02 L0 35.02 L0 36 L1.89 36 L10.38 35.02 Z" class="st4"/>
			</g>
			<g id="shape47-132" v:mID="47" v:groupContext="shape" transform="translate(2.35032,-2.65604)">
				<title>Feuille.47</title>
				<path d="M10.38 35.02 L0 35.02 L0 36 L1.89 36 L10.38 35.02 Z" class="st5"/>
				<path d="M10.38 35.02 L0 35.02 L0 36 L1.89 36" class="st6"/>
			</g>
		</g>
		<g id="group48-135" transform="translate(3.46815,0)" v:mID="48" v:groupContext="group">
			<title>Feuille.48</title>
			<g id="shape49-136" v:mID="49" v:groupContext="shape" transform="translate(1.3758,-1.38576)">
				<title>Feuille.49</title>
				<rect x="0" y="5.28228" width="14.3312" height="30.7177" class="st1"/>
				<rect x="0" y="5.28228" width="14.3312" height="30.7177" class="st2"/>
			</g>
			<g id="shape50-139" v:mID="50" v:groupContext="shape" transform="translate(1.3758,-1.38576)">
				<title>Feuille.50</title>
				<rect x="0" y="5.28228" width="14.3312" height="30.7177" class="st3"/>
			</g>
			<g id="shape51-141" v:mID="51" v:groupContext="shape" transform="translate(1.3758,-32.1035)">
				<title>Feuille.51</title>
				<path d="M0 36 L2.75 33.23 L16.51 33.23 L14.33 36 L0 36 Z" class="st1"/>
			</g>
			<g id="shape52-144" v:mID="52" v:groupContext="shape" transform="translate(1.3758,-32.1035)">
				<title>Feuille.52</title>
				<path d="M0 36 L2.75 33.23 L16.51 33.23 L14.33 36 L0 36 Z" class="st3"/>
			</g>
			<g id="shape53-146" v:mID="53" v:groupContext="shape" transform="translate(15.707,-1.38576)">
				<title>Feuille.53</title>
				<path d="M0 36 L2.18 31.73 L2.18 2.51 L0 5.28 L0 36 Z" class="st1"/>
			</g>
			<g id="shape54-149" v:mID="54" v:groupContext="shape" transform="translate(15.707,-1.38576)">
				<title>Feuille.54</title>
				<path d="M0 36 L2.18 31.73 L2.18 2.51 L0 5.28 L0 36 Z" class="st3"/>
			</g>
			<g id="shape55-151" v:mID="55" v:groupContext="shape">
				<title>Feuille.55</title>
				<path d="M16.8 36 L15.71 34.61 L1.38 34.61 L0 36 L16.8 36 Z" class="st1"/>
			</g>
			<g id="shape56-154" v:mID="56" v:groupContext="shape">
				<title>Feuille.56</title>
				<path d="M16.8 36 L15.71 34.61 L1.38 34.61 L0 36 L16.8 36 Z" class="st3"/>
			</g>
			<g id="shape57-156" v:mID="57" v:groupContext="shape" transform="translate(15.707,0)">
				<title>Feuille.57</title>
				<path d="M1.09 36 L3.32 31.21 L2.18 30.34 L0 34.61 L1.09 36 Z" class="st1"/>
			</g>
			<g id="shape58-159" v:mID="58" v:groupContext="shape" transform="translate(15.707,0)">
				<title>Feuille.58</title>
				<path d="M1.09 36 L3.32 31.21 L2.18 30.34 L0 34.61 L1.09 36 Z" class="st3"/>
			</g>
			<g id="shape59-161" v:mID="59" v:groupContext="shape" transform="translate(1.3758,-1.38576)">
				<title>Feuille.59</title>
				<path d="M14.33 36 L0 36 L14.33 36 Z" class="st4"/>
			</g>
			<g id="shape60-164" v:mID="60" v:groupContext="shape" transform="translate(1.3758,-1.38576)">
				<title>Feuille.60</title>
				<path d="M14.33 36 L0 36 L14.33 36 Z" class="st5"/>
				<path d="M14.33 36 L0 36" class="st6"/>
			</g>
			<g id="shape61-167" v:mID="61" v:groupContext="shape" transform="translate(15.707,-1.38576)">
				<title>Feuille.61</title>
				<path d="M2.18 31.73 L0 36 L2.18 31.73 Z" class="st4"/>
			</g>
			<g id="shape62-170" v:mID="62" v:groupContext="shape" transform="translate(15.707,-1.38576)">
				<title>Feuille.62</title>
				<path d="M2.18 31.73 L0 36 L2.18 31.73 Z" class="st5"/>
				<path d="M2.18 31.73 L0 36" class="st6"/>
			</g>
			<g id="shape63-173" v:mID="63" v:groupContext="shape" transform="translate(1.3758,-30.7177)">
				<title>Feuille.63</title>
				<path d="M0 36 L14.27 36 L0 36 Z" class="st1"/>
			</g>
			<g id="shape64-176" v:mID="64" v:groupContext="shape" transform="translate(1.3758,-30.7177)">
				<title>Feuille.64</title>
				<path d="M0 36 L14.27 36 L0 36 Z" class="st5"/>
				<path d="M0 36 L14.27 36" class="st6"/>
			</g>
			<g id="shape65-179" v:mID="65" v:groupContext="shape" transform="translate(1.3758,-30.5445)">
				<title>Feuille.65</title>
				<path d="M0 36 L14.22 36 L0 36 Z" class="st1"/>
			</g>
			<g id="shape66-182" v:mID="66" v:groupContext="shape" transform="translate(1.3758,-30.5445)">
				<title>Feuille.66</title>
				<path d="M0 36 L14.22 36 L0 36 Z" class="st5"/>
				<path d="M0 36 L14.22 36" class="st6"/>
			</g>
			<g id="shape67-185" v:mID="67" v:groupContext="shape" transform="translate(2.35032,-25.8675)">
				<title>Feuille.67</title>
				<path d="M10.38 35.02 L0 35.02 L0 36 L1.89 36 L10.38 35.02 Z" class="st4"/>
			</g>
			<g id="shape68-188" v:mID="68" v:groupContext="shape" transform="translate(2.35032,-25.8675)">
				<title>Feuille.68</title>
				<path d="M10.38 35.02 L0 35.02 L0 36 L1.89 36 L10.38 35.02 Z" class="st5"/>
				<path d="M10.38 35.02 L0 35.02 L0 36 L1.89 36" class="st6"/>
			</g>
			<g id="shape69-191" v:mID="69" v:groupContext="shape" transform="translate(2.35032,-24.0776)">
				<title>Feuille.69</title>
				<path d="M10.38 35.02 L0 35.02 L0 36 L1.89 36 L10.38 35.02 Z" class="st4"/>
			</g>
			<g id="shape70-194" v:mID="70" v:groupContext="shape" transform="translate(2.35032,-24.0776)">
				<title>Feuille.70</title>
				<path d="M10.38 35.02 L0 35.02 L0 36 L1.89 36 L10.38 35.02 Z" class="st5"/>
				<path d="M10.38 35.02 L0 35.02 L0 36 L1.89 36" class="st6"/>
			</g>
			<g id="shape71-197" v:mID="71" v:groupContext="shape" transform="translate(2.35032,-22.2877)">
				<title>Feuille.71</title>
				<path d="M10.38 35.02 L0 35.02 L0 36 L1.89 36 L10.38 35.02 Z" class="st4"/>
			</g>
			<g id="shape72-200" v:mID="72" v:groupContext="shape" transform="translate(2.35032,-22.2877)">
				<title>Feuille.72</title>
				<path d="M10.38 35.02 L0 35.02 L0 36 L1.89 36 L10.38 35.02 Z" class="st5"/>
				<path d="M10.38 35.02 L0 35.02 L0 36 L1.89 36" class="st6"/>
			</g>
			<g id="shape73-203" v:mID="73" v:groupContext="shape" transform="translate(2.35032,-20.4977)">
				<title>Feuille.73</title>
				<path d="M10.38 35.02 L0 35.02 L0 36 L1.89 36 L10.38 35.02 Z" class="st4"/>
			</g>
			<g id="shape74-206" v:mID="74" v:groupContext="shape" transform="translate(2.35032,-20.4977)">
				<title>Feuille.74</title>
				<path d="M10.38 35.02 L0 35.02 L0 36 L1.89 36 L10.38 35.02 Z" class="st5"/>
				<path d="M10.38 35.02 L0 35.02 L0 36 L1.89 36" class="st6"/>
			</g>
			<g id="shape75-209" v:mID="75" v:groupContext="shape" transform="translate(2.35032,-18.7655)">
				<title>Feuille.75</title>
				<path d="M10.38 35.08 L0 35.08 L0 36 L1.89 36 L10.38 35.08 Z" class="st4"/>
			</g>
			<g id="shape76-212" v:mID="76" v:groupContext="shape" transform="translate(2.35032,-18.7655)">
				<title>Feuille.76</title>
				<path d="M10.38 35.08 L0 35.08 L0 36 L1.89 36 L10.38 35.08 Z" class="st5"/>
				<path d="M10.38 35.08 L0 35.08 L0 36 L1.89 36" class="st6"/>
			</g>
			<g id="shape77-215" v:mID="77" v:groupContext="shape" transform="translate(2.35032,-16.9756)">
				<title>Feuille.77</title>
				<path d="M10.38 35.08 L0 35.08 L0 36 L1.89 36 L10.38 35.08 Z" class="st4"/>
			</g>
			<g id="shape78-218" v:mID="78" v:groupContext="shape" transform="translate(2.35032,-16.9756)">
				<title>Feuille.78</title>
				<path d="M10.38 35.08 L0 35.08 L0 36 L1.89 36 L10.38 35.08 Z" class="st5"/>
				<path d="M10.38 35.08 L0 35.08 L0 36 L1.89 36" class="st6"/>
			</g>
			<g id="shape79-221" v:mID="79" v:groupContext="shape" transform="translate(2.35032,-15.1856)">
				<title>Feuille.79</title>
				<path d="M10.38 35.08 L0 35.08 L0 36 L1.89 36 L10.38 35.08 Z" class="st4"/>
			</g>
			<g id="shape80-224" v:mID="80" v:groupContext="shape" transform="translate(2.35032,-15.1856)">
				<title>Feuille.80</title>
				<path d="M10.38 35.08 L0 35.08 L0 36 L1.89 36 L10.38 35.08 Z" class="st5"/>
				<path d="M10.38 35.08 L0 35.08 L0 36 L1.89 36" class="st6"/>
			</g>
			<g id="shape81-227" v:mID="81" v:groupContext="shape" transform="translate(2.35032,-13.3957)">
				<title>Feuille.81</title>
				<path d="M10.38 35.08 L0 35.08 L0 36 L1.89 36 L10.38 35.08 Z" class="st4"/>
			</g>
			<g id="shape82-230" v:mID="82" v:groupContext="shape" transform="translate(2.35032,-13.3957)">
				<title>Feuille.82</title>
				<path d="M10.38 35.08 L0 35.08 L0 36 L1.89 36 L10.38 35.08 Z" class="st5"/>
				<path d="M10.38 35.08 L0 35.08 L0 36 L1.89 36" class="st6"/>
			</g>
			<g id="shape83-233" v:mID="83" v:groupContext="shape" transform="translate(2.35032,-11.6058)">
				<title>Feuille.83</title>
				<path d="M10.38 35.02 L0 35.02 L0 36 L1.89 36 L10.38 35.02 Z" class="st4"/>
			</g>
			<g id="shape84-236" v:mID="84" v:groupContext="shape" transform="translate(2.35032,-11.6058)">
				<title>Feuille.84</title>
				<path d="M10.38 35.02 L0 35.02 L0 36 L1.89 36 L10.38 35.02 Z" class="st5"/>
				<path d="M10.38 35.02 L0 35.02 L0 36 L1.89 36" class="st6"/>
			</g>
			<g id="shape85-239" v:mID="85" v:groupContext="shape" transform="translate(2.35032,-9.81581)">
				<title>Feuille.85</title>
				<path d="M10.38 35.02 L0 35.02 L0 36 L1.89 36 L10.38 35.02 Z" class="st4"/>
			</g>
			<g id="shape86-242" v:mID="86" v:groupContext="shape" transform="translate(2.35032,-9.81581)">
				<title>Feuille.86</title>
				<path d="M10.38 35.02 L0 35.02 L0 36 L1.89 36 L10.38 35.02 Z" class="st5"/>
				<path d="M10.38 35.02 L0 35.02 L0 36 L1.89 36" class="st6"/>
			</g>
			<g id="shape87-245" v:mID="87" v:groupContext="shape" transform="translate(2.35032,-8.02587)">
				<title>Feuille.87</title>
				<path d="M10.38 35.02 L0 35.02 L0 36 L1.89 36 L10.38 35.02 Z" class="st4"/>
			</g>
			<g id="shape88-248" v:mID="88" v:groupContext="shape" transform="translate(2.35032,-8.02587)">
				<title>Feuille.88</title>
				<path d="M10.38 35.02 L0 35.02 L0 36 L1.89 36 L10.38 35.02 Z" class="st5"/>
				<path d="M10.38 35.02 L0 35.02 L0 36 L1.89 36" class="st6"/>
			</g>
			<g id="shape89-251" v:mID="89" v:groupContext="shape" transform="translate(2.35032,-6.23593)">
				<title>Feuille.89</title>
				<path d="M10.38 35.02 L0 35.02 L0 36 L1.89 36 L10.38 35.02 Z" class="st4"/>
			</g>
			<g id="shape90-254" v:mID="90" v:groupContext="shape" transform="translate(2.35032,-6.23593)">
				<title>Feuille.90</title>
				<path d="M10.38 35.02 L0 35.02 L0 36 L1.89 36 L10.38 35.02 Z" class="st5"/>
				<path d="M10.38 35.02 L0 35.02 L0 36 L1.89 36" class="st6"/>
			</g>
			<g id="shape91-257" v:mID="91" v:groupContext="shape" transform="translate(2.35032,-4.44599)">
				<title>Feuille.91</title>
				<path d="M10.38 35.02 L0 35.02 L0 36 L1.89 36 L10.38 35.02 Z" class="st4"/>
			</g>
			<g id="shape92-260" v:mID="92" v:groupContext="shape" transform="translate(2.35032,-4.44599)">
				<title>Feuille.92</title>
				<path d="M10.38 35.02 L0 35.02 L0 36 L1.89 36 L10.38 35.02 Z" class="st5"/>
				<path d="M10.38 35.02 L0 35.02 L0 36 L1.89 36" class="st6"/>
			</g>
			<g id="shape93-263" v:mID="93" v:groupContext="shape" transform="translate(2.35032,-2.65604)">
				<title>Feuille.93</title>
				<path d="M10.38 35.02 L0 35.02 L0 36 L1.89 36 L10.38 35.02 Z" class="st4"/>
			</g>
			<g id="shape94-266" v:mID="94" v:groupContext="shape" transform="translate(2.35032,-2.65604)">
				<title>Feuille.94</title>
				<path d="M10.38 35.02 L0 35.02 L0 36 L1.89 36 L10.38 35.02 Z" class="st5"/>
				<path d="M10.38 35.02 L0 35.02 L0 36 L1.89 36" class="st6"/>
			</g>
		</g>
	</g>
</svg>
